
<svg xmlns="http://www.w3.org/2000/svg" version="1.1" xmlns:xlink="http://www.w3.org/1999/xlink" preserveAspectRatio="none" x="0px" y="0px" width="30px" height="30px" viewBox="0 0 30 30">
<defs>
<g id="Layer0_0_FILL">
<path fill="#FFFFFF" stroke="none" d="
M 278.3 164.3
Q 278.2 164.2 278.15 164.2
L 276.25 164.1
Q 276.15 164.1 276.15 164.15 276.1 164.15 276.05 164.2
L 263.1 177.2
Q 263.05 177.25 263.05 177.3
L 263.15 178.95
Q 263.15 179 263.2 179.05
L 260.15 181.9
Q 260.1 181.9 260.1 182 260.1 182.05 260.1 182.1
L 260.85 186.2
Q 260.9 186.25 260.95 186.3 261.05 186.35 261.15 186.35 261.2 186.35 261.25 186.3
L 262.6 184.95
Q 262.6 184.9 262.65 184.9
L 265.8 181.75
Q 265.85 181.8 265.95 181.85
L 267.45 182.05
Q 267.5 182.05 267.55 182.05 267.6 182.05 267.65 182
L 274.15 175.6 276.65 175.95
Q 276.75 175.95 276.8 175.9 276.9 175.85 276.9 175.75
L 276.9 175.7 282.1 170.5
Q 282.15 170.45 282.15 170.35
L 282.2 168.35
Q 282.2 168.25 282.15 168.2
L 278.3 164.3
M 277 167.3
L 277.8 168.05 271.8 174.05 272.2 174.5 268.85 177.95 268.35 177.45 266.8 178.95 266.1 178.25 267.65 176.7 267.05 176.1 270.45 172.75 271 173.35 277 167.3
M 261.85 180.95
L 262.9 180 263.65 183.2 262.6 184.3 261.85 180.95
M 260.6 182.15
L 261.45 181.35 262.2 184.7 261.25 185.65 260.6 182.15
M 264.05 182.85
L 263.3 179.6 263.5 179.4 265.45 181.45 264.05 182.85
M 268.35 177.45
L 271.75 174.05 271 173.35 267.65 176.7 268.35 177.45 Z"/>
</g>

<g id="Layer0_1_FILL">
<path fill="#ffffff" stroke="none" d="
M 12.95 25
L 18.15 25 18.15 16.35 22.65 16.35 15.5 5.25 8.4 16.35 12.95 16.35 12.95 25 Z"/>
</g>
</defs>

<g transform="matrix( 1, 0, 0, 1, -282.3,-205.2) ">
<use xlink:href="#Layer0_0_FILL"/>
</g>

<g transform="matrix( 0.763702392578125, -0.567413330078125, 0.7118682861328125, 0.953582763671875, -8.95,8.6) ">
<use xlink:href="#Layer0_1_FILL"/>
</g>
</svg>
