
<svg xmlns="http://www.w3.org/2000/svg" version="1.1" xmlns:xlink="http://www.w3.org/1999/xlink" preserveAspectRatio="none" x="0px" y="0px" width="30px" height="30px" viewBox="0 0 30 30">
<defs>
<filter id="Filter_1" x="-20%" y="-20%" width="140%" height="140%" color-interpolation-filters="sRGB">
<feColorMatrix in="SourceGraphic" type="matrix" values="0 0 0 0 1 0 0 0 0 1 0 0 0 0 1 0 0 0 1 0" result="result1"/>
</filter>

<g id="Layer0_0_FILL">
<path fill="#FFFFFF" stroke="none" d="
M 278.3 164.3
Q 278.2 164.2 278.15 164.2
L 276.25 164.1
Q 276.15 164.1 276.15 164.15 276.1 164.15 276.05 164.2
L 263.1 177.2
Q 263.05 177.25 263.05 177.3
L 263.15 178.95
Q 263.15 179 263.2 179.05
L 260.15 181.9
Q 260.1 181.9 260.1 182 260.1 182.05 260.1 182.1
L 260.85 186.2
Q 260.9 186.25 260.95 186.3 261.05 186.35 261.15 186.35 261.2 186.35 261.25 186.3
L 262.6 184.95
Q 262.6 184.9 262.65 184.9
L 265.8 181.75
Q 265.85 181.8 265.95 181.85
L 267.45 182.05
Q 267.5 182.05 267.55 182.05 267.6 182.05 267.65 182
L 274.15 175.6 276.65 175.95
Q 276.75 175.95 276.8 175.9 276.9 175.85 276.9 175.75
L 276.9 175.7 282.1 170.5
Q 282.15 170.45 282.15 170.35
L 282.2 168.35
Q 282.2 168.25 282.15 168.2
L 278.3 164.3
M 277 167.3
L 277.8 168.05 271.8 174.05 272.2 174.5 268.85 177.95 268.35 177.45 266.8 178.95 266.1 178.25 267.65 176.7 267.05 176.1 270.45 172.75 271 173.35 277 167.3
M 261.85 180.95
L 262.9 180 263.65 183.2 262.6 184.3 261.85 180.95
M 260.6 182.15
L 261.45 181.35 262.2 184.7 261.25 185.65 260.6 182.15
M 264.05 182.85
L 263.3 179.6 263.5 179.4 265.45 181.45 264.05 182.85
M 268.35 177.45
L 271.75 174.05 271 173.35 267.65 176.7 268.35 177.45 Z"/>
</g>

<g id="Layer0_1_FILL">
<path fill="#FFFFFF" stroke="none" d="
M 12.95 25
L 18.15 25 18.15 16.35 22.65 16.35 15.5 5.25 8.4 16.35 12.95 16.35 12.95 25 Z"/>
</g>

<g id="___2_0_Layer0_0_FILL">
<path fill="#FAED39" stroke="none" d="
M 35.8 5.35
Q 26.1 9.7 17.9 17.9 0 35.95 0 61.3 0 79.7 9.3 94.05 11.9 98.15 15.35 102.1 11.25 104.3 6.5 107 5.35 108 5.85 109.15 6.65 110.3 8.3 110.95 13.4 113.65 21.75 117.5 24.4 118.75 27.35 120.05 29.4 120.95 31.45 121.85 27.9 119.65 26.45 118.25 24.15 115.8 24.15 112.5 24.15 109.9 25.7 106.7 27.35 103.25 27.5 100.95 27.6 98.9 23.8 92.75 19.55 86.35 18.9 85.35 10.85 72.05 10.85 56.95 10.85 23.9 35.8 5.35 Z"/>

<path fill="#F09E00" stroke="none" d="
M 118.75 39.25
Q 119.65 43.1 119.65 47.45 119.65 59.75 83.95 61.95 82.4 61.55 79.95 58.2 76.15 52.6 75.25 51.7 67.55 42.45 54.75 42.45 44.75 42.45 38.5 48.25 30.7 55.55 30.7 69.35 30.7 70.75 31.35 74.6 31.85 77.65 33.15 81.25 33.5 82.65 34 84.05 34.4 84.45 34.65 85.1 37.75 92.25 40.55 93.15 41.55 93.4 46.05 92 48.75 91.1 48.75 94.8
L 48.5 109.4
Q 48.5 118.9 47.7 122.35 47.1 124.9 44 125.3 43 125.4 40.3 125.3 44.4 126.8 46.95 127.6 48.75 128.25 50.55 127.35 52.05 126.3 52.45 124.65 52.7 123.5 52.95 122.35 53.35 120.05 53.5 117.6 54.5 111.6 55.4 102.75 55.8 98.9 56.05 95.95 56.05 95.45 56.15 94.95 56.7 88.4 56.7 86.1 56.95 79.7 53.5 81.25 50.65 82.65 42.75 87.15 41.2 84.45 40.15 81.4 38 73.45 42.1 66.4 43 65 44 63.85 49.25 58.6 56.55 58.6 64.25 58.6 69.5 63.95 74.45 68.85 74.85 75.75 75 79.45 76.9 78.8 88.05 76.25 99.15 73.45 121.3 68.05 121.7 67.8 122.7 66.9 122.7 61.3 122.7 58.6 122.45 55.9 121.85 47.1 118.75 39.25 Z"/>

<path fill="#FFCC1E" stroke="none" d="
M 118.75 39.25
Q 114.4 27.6 104.95 17.9 86.9 0 61.4 0 59.6 0 57.45 0.1 57.2 0.1 56.55 0.1 46.7 0.85 37.85 4.35 36.95 4.7 35.8 5.35 10.85 23.9 10.85 56.95 10.85 72.05 18.9 85.35 19.55 86.35 23.8 92.75 27.6 98.9 27.5 100.95 27.35 103.25 25.7 106.7 24.15 109.9 24.15 112.5 24.15 115.8 26.45 118.25 27.9 119.65 31.45 121.85 32.1 122.1 32.75 122.35 36.95 124.15 40.3 125.3 43 125.4 44 125.3 47.1 124.9 47.7 122.35 48.5 118.9 48.5 109.4
L 48.75 94.8
Q 48.75 91.1 46.05 92 41.55 93.4 40.55 93.15 37.75 92.25 34.65 85.1 34.4 84.45 34 84.05 33.5 82.65 33.15 81.25 31.85 77.65 31.35 74.6 30.7 70.75 30.7 69.35 30.7 55.55 38.5 48.25 44.75 42.45 54.75 42.45 67.55 42.45 75.25 51.7 76.15 52.6 79.95 58.2 82.4 61.55 83.95 61.95 119.65 59.75 119.65 47.45 119.65 43.1 118.75 39.25 Z"/>
</g>

<g id="___1_0_Layer0_0_FILL">
<path fill="#FF2560" stroke="none" d="
M 45.25 115.85
Q 44.8 115.55 43.85 115.55 43.6 115.55 43.45 115.55 37.3 115.85 32.7 119.7
L 32.6 119.7
Q 29.4 122.25 28.45 126.1 27.65 131.95 32.2 135.7 35.55 138.5 40.5 138.75 46.35 139 49.85 136.1 54 132.75 53.85 126.2 53.45 118.35 45.25 115.85
M 40.5 119.95
Q 41.15 121.15 40.6 122.65 40.2 124.05 38.6 124.75 37.3 125.8 35.55 125.55 34.2 125.4 33.55 124.35 32.7 123 33.25 121.7 33.95 120.2 35.55 119.4 36.9 118.45 38.3 118.6 39.8 118.6 40.5 119.95
M 69.25 6
Q 68.15 5.2 67.05 4.65 66.8 4.5 66.65 4.35 65.3 3.55 63.9 3 62.95 2.8 62.3 2.55 54.65 0 46.6 0
L 46.5 0
Q 35.7 0 27.25 3.45
L 26.05 3.85
Q 20.15 6.65 15.8 12.4 10.2 19.2 10.2 26.8 10.2 34.15 13.35 39.1 17.15 44.8 24.1 44.8 28.05 44.8 29.8 42.3 30.2 41.35 31.55 38.15 31.45 37.85 31.45 37.75
L 31.45 37.45
Q 30.75 34.95 32.3 32.4 33.4 30 35.3 28.7
L 35.15 28.95
Q 39.8 25.75 46.1 25.75 52.1 26 55.75 29.5
L 55.85 29.55
Q 59.2 33.2 59.2 38.4
L 59.2 38.55
Q 59.05 43.85 56 48.2 55.85 48.3 55.75 48.45 51.5 54.05 45.95 59.75
L 46.1 59.75
Q 39.4 66.45 34.35 74.85 34.05 75.15 34.05 75.55 30.75 81.55 29.3 89.4 30.9 93.15 34.2 95.55 37.7 97.9 41.95 97.9 46.75 97.9 50.15 93.95 52.35 91.25 54.4 85.5 56.25 79.65 57.35 76.7 58.9 71.65 61.75 68.2 72.25 55 73.6 52.95 78.8 43.3 78.8 28.55 78.8 17.7 74.3 11.05 72.15 7.85 69.25 6 Z"/>

<path fill="#FFFFFF" stroke="none" d="
M 40.6 122.65
Q 41.15 121.15 40.5 119.95 39.8 118.6 38.3 118.6 36.9 118.45 35.55 119.4 33.95 120.2 33.25 121.7 32.7 123 33.55 124.35 34.2 125.4 35.55 125.55 37.3 125.8 38.6 124.75 40.2 124.05 40.6 122.65 Z"/>

<path fill="#DB0E45" stroke="none" d="
M 54.65 119.7
Q 50.8 116.2 45.25 115.85 53.45 118.35 53.85 126.2 54 132.75 49.85 136.1 46.35 139 40.5 138.75 35.55 138.5 32.2 135.7 27.65 131.95 28.45 126.1 27.8 127.85 27.65 129.65 27.65 129.9 27.65 130.05 28.05 136.1 32.45 140.1
L 32.45 140.25
Q 37.05 144.1 43.6 144.2
L 43.85 144.2
Q 50.55 144.1 54.8 140.25
L 54.9 140.1
Q 59.3 136.1 59.6 130.05 59.6 129.9 59.6 129.65 59.3 123.5 54.65 119.7
M 88.85 37.3
L 88.85 36.9
Q 88.75 26.15 82.85 18 82.6 17.7 82.45 17.45 77.25 10.35 69.25 6 72.15 7.85 74.3 11.05 78.8 17.7 78.8 28.55 78.8 43.3 73.6 52.95 72.25 55 61.75 68.2 58.9 71.65 57.35 76.7 56.25 79.65 54.4 85.5 52.35 91.25 50.15 93.95 46.75 97.9 41.95 97.9 37.7 97.9 34.2 95.55 30.9 93.15 29.3 89.4 28.75 93.15 28.6 97.65
L 28.6 100.2
Q 28.75 105.4 33.4 108.5 37.6 111.1 45 111.1 48.9 111.1 51.8 109.45 56.8 106.75 57.5 99.8
L 57.5 99.25
Q 57.6 90.3 61.2 84.95
L 61.35 84.85
Q 65.45 78.55 70.85 73.25 77.8 66.85 83 59.1 88.6 50.55 88.85 37.3 Z"/>

<path fill="#FC6384" stroke="none" d="
M 26.05 3.85
Q 24.5 4.5 22.85 5.3
L 22.85 5.2
Q 12.4 10.35 6.55 19.2 0.1 28.3 0 39.2 0 45.2 2.55 50.25 5.85 57.9 16.6 58
L 16.85 58
Q 24.1 57.6 28.35 52.55 28.45 52.3 28.6 51.9 31.65 47.5 31.65 42.05 31.65 40.15 31.55 38.15 30.2 41.35 29.8 42.3 28.05 44.8 24.1 44.8 17.15 44.8 13.35 39.1 10.2 34.15 10.2 26.8 10.2 19.2 15.8 12.4 20.15 6.65 26.05 3.85 Z"/>
</g>

<g id="___1_0_Layer0_0_MEMBER_0_FILL">
<path fill="#FFFFFF" stroke="none" d="
M 530 655.85
Q 527.55 654.25 527.5 654.2
L 527 654.2
Q 526.9830078125 654.233984375 526.95 654.25 526.950390625 654.5392578125 526.95 654.8 526.9462890625 656.220703125 527.65 657.55 528.6 659.4 530.15 659.4 531.35 659.4 531.8 659.2 532.4 658.95 532.4 658.2 532.4 657.55 530 655.85 Z"/>
</g>

<g id="___1_0_Layer0_0_MEMBER_1_FILL">
<path fill="#FFFFFF" stroke="none" d="
M 545.35 473.5
Q 545.5 473.65 546.4 474.2 547.1 474.65 547.4 474.95 548.9 476.65 549.75 477.9 552.05 481.05 552 485.1 551.95 487.95 551.15 490.3 550.35 492.6 548.65 495 550.75 494.45 552.4 491 553.75 488.05 553.8 485.8 553.9 483.1 553.3 481.2 552.75 479.25 551.3 477.55 549.15 474.95 545.35 473.5 Z"/>
</g>
</defs>

<g transform="matrix( 1, 0, 0, 1, -282.3,-205.2) ">
<use xlink:href="#Layer0_0_FILL"/>
</g>

<g transform="matrix( 0.763702392578125, -0.567413330078125, 0.7118682861328125, 0.953582763671875, -5.1,-32.4) ">
<use xlink:href="#Layer0_1_FILL"/>
</g>

<g transform="matrix( 0.1408843994140625, 0, 0, 0.1408843994140625, 6.35,5.95) ">
<g transform="matrix( 1, 0, 0, 1, 0,0) ">
<use filter="url(#Filter_1)" xlink:href="#___2_0_Layer0_0_FILL"/>
</g>
</g>

<g transform="matrix( 0.13818359375, 0, 0, 0.138641357421875, 63.7,-27.35) ">
<g transform="matrix( 1, 0, 0, 1, 0,0) ">
<use filter="url(#Filter_1)" xlink:href="#___1_0_Layer0_0_FILL"/>
</g>

<g transform="matrix( 2.8953857421875, 0, 0, 2.89105224609375, -1523.05,-1851.85) ">
<use filter="url(#Filter_1)" xlink:href="#___1_0_Layer0_0_MEMBER_0_FILL"/>
</g>

<g transform="matrix( 2.482940673828125, 0, 0, 2.479248046875, -1293.65,-1169.85) ">
<use filter="url(#Filter_1)" xlink:href="#___1_0_Layer0_0_MEMBER_1_FILL"/>
</g>
</g>
</svg>
