
<svg xmlns="http://www.w3.org/2000/svg" version="1.1" xmlns:xlink="http://www.w3.org/1999/xlink" preserveAspectRatio="none" x="0px" y="0px" width="200px" height="200px" viewBox="0 0 200 200">
<defs>
<g id="Layer0_0_MEMBER_0_FILL">
<path fill="#0080BD" stroke="none" d="
M 191.6 350.45
L 191.6 363.3
Q 191.6 372.35 200.65 372.35
L 213.5 372.35
Q 222.6 372.35 222.6 363.3
L 222.6 350.45
Q 222.6 341.35 213.5 341.35
L 200.65 341.35
Q 191.6 341.35 191.6 350.45 Z"/>
</g>

<g id="Layer0_0_MEMBER_1_FILL">
<path fill="#FFFFFF" stroke="none" d="
M 214.4 419.65
L 203.45 412.75
Q 202.8 412.35 202.2 412.5 201.5 412.55 201.05 413.15 200.55 413.65 200.6 414.3
L 201.3 427.3
Q 201.3 427.95 201.7 428.45 202.1 428.85 202.75 429 203.4 429.05 203.95 428.65
L 206.35 427.35 209.7 433.1
Q 210.15 433.95 210.9 434.1 211.85 434.4 212.6 433.95
L 214.4 432.9
Q 215.25 432.45 215.45 431.55 215.7 430.75 215.25 429.9
L 211.9 424.15 214.35 422.7
Q 214.85 422.4 215.15 421.85 215.3 421.2 215.2 420.6 214.9 420 214.4 419.65 Z"/>
</g>
</defs>

<g transform="matrix( 6.4516143798828125, 0, 0, 6.4516143798828125, -1236.15,-2202.25) ">
<use xlink:href="#Layer0_0_MEMBER_0_FILL"/>
</g>

<g transform="matrix( 6.4516143798828125, 0, 0, 6.4516143798828125, -1241.65,-2623.55) ">
<use xlink:href="#Layer0_0_MEMBER_1_FILL"/>
</g>
</svg>
