
<svg xmlns="http://www.w3.org/2000/svg" version="1.1" xmlns:xlink="http://www.w3.org/1999/xlink" preserveAspectRatio="none" x="0px" y="0px" width="200px" height="200px" viewBox="0 0 200 200">
<defs>
<g id="Layer0_0_MEMBER_0_MEMBER_0_FILL">
<path fill="#42C1FF" stroke="none" d="
M 191.6 363.3
Q 191.6 372.35 200.65 372.35
L 213.5 372.35
Q 222.6 372.35 222.6 363.3
L 222.6 350.45
Q 222.6 341.35 213.5 341.35
L 200.65 341.35
Q 191.6 341.35 191.6 350.45
L 191.6 363.3 Z"/>
</g>

<g id="Layer0_0_MEMBER_0_MEMBER_1_FILL">
<path fill="#FFFFFF" stroke="none" d="
M 143.95 354.55
L 132.55 354.55
Q 124.5 354.55 124.5 362.6
L 124.5 374
Q 124.5 382.05 132.55 382.05
L 143.95 382.05
Q 152 382.05 152 374
L 152 362.6
Q 152 354.55 143.95 354.55 Z"/>
</g>

<g id="Layer0_0_MEMBER_1_FILL">
<path fill="#007AB5" stroke="none" d="
M 201.3 471.9
Q 200.65 471.95 200.2 472.55 199.7 473.05 199.75 473.75
L 200.4 486.8
Q 200.4 487.5 200.8 488 201.25 488.4 201.9 488.55 202.55 488.6 203.1 488.25
L 205.55 486.9 208.9 492.7
Q 209.35 493.55 210.15 493.75 211.1 494 211.85 493.55
L 213.7 492.5
Q 214.5 492.05 214.75 491.15 215 490.3 214.5 489.45
L 211.15 483.65 213.6 482.2
Q 214.15 481.9 214.4 481.3 214.6 480.7 214.45 480.1 214.2 479.45 213.7 479.1
L 202.6 472.15
Q 201.95 471.75 201.3 471.9 Z"/>
</g>
</defs>

<g transform="matrix( 6.2809600830078125, 0, 0, 6.2755889892578125, -1203.45,-2141.8) ">
<use xlink:href="#Layer0_0_MEMBER_0_MEMBER_0_FILL"/>
</g>

<g transform="matrix( 7.08026123046875, 0, 0, 7.0742034912109375, -876.2,-2503) ">
<use xlink:href="#Layer0_0_MEMBER_0_MEMBER_1_FILL"/>
</g>

<g transform="matrix( 6.2809600830078125, 0, 0, 6.2755889892578125, -1203.45,-2924.95) ">
<use xlink:href="#Layer0_0_MEMBER_1_FILL"/>
</g>
</svg>
