
<svg xmlns="http://www.w3.org/2000/svg" version="1.1" xmlns:xlink="http://www.w3.org/1999/xlink" preserveAspectRatio="none" x="0px" y="0px" width="200px" height="200px" viewBox="0 0 200 200">
<defs>
<g id="Layer0_0_MEMBER_0_FILL">
<path fill="#0080BD" stroke="none" d="
M 143.95 354.55
L 132.55 354.55
Q 124.5 354.55 124.5 362.6
L 124.5 374
Q 124.5 382.05 132.55 382.05
L 143.95 382.05
Q 152 382.05 152 374
L 152 362.6
Q 152 354.55 143.95 354.55 Z"/>
</g>

<g id="Layer0_0_MEMBER_1_FILL">
<path fill="#FFFFFF" stroke="none" d="
M 284.15 434.75
Q 284.75 434.8 285.25 434.45 285.7 434.05 285.8 433.45 285.85 432.8 285.5 432.35
L 281.75 427.55
Q 283.55 425.55 283.85 422.85
L 283.85 422.75
Q 284.2 419.25 282.05 416.55 279.8 413.7 276.3 413.25
L 276.25 413.25
Q 272.75 412.95 269.95 415.15
L 269.9 415.15
Q 267.2 417.3 266.75 420.85
L 266.7 420.9
Q 266.3 424.45 268.5 427.3 270.75 430.05 274.35 430.4 277.15 430.65 279.4 429.45
L 283.2 434.2
Q 283.55 434.6 284.15 434.75
M 275.95 416.2
Q 278.25 416.5 279.7 418.35 281.15 420.15 280.9 422.45 280.65 424.8 278.8 426.2
L 278.8 426.3 278.75 426.3
Q 276.95 427.7 274.7 427.4
L 274.65 427.4
Q 272.25 427.2 270.85 425.45 269.35 423.55 269.7 421.2 269.95 418.9 271.8 417.45 273.65 416 275.95 416.2
M 275.95 418.45
Q 275.65 418.15 275.25 418.15 274.85 418.15 274.55 418.45 274.25 418.75 274.25 419.15
L 274.25 421 272.45 421
Q 272 421 271.75 421.25 271.45 421.55 271.45 421.95 271.45 422.4 271.75 422.65 272 422.95 272.45 422.95
L 274.25 422.95 274.25 424.85
Q 274.25 425.2 274.55 425.55 274.85 425.85 275.25 425.85 275.65 425.85 275.95 425.55 276.25 425.2 276.25 424.85
L 276.25 422.95 278.15 422.95
Q 278.5 422.95 278.8 422.65 279.15 422.4 279.15 421.95 279.15 421.55 278.8 421.25 278.5 421 278.15 421
L 276.25 421 276.25 419.15
Q 276.25 418.75 275.95 418.45 Z"/>
</g>
</defs>

<g transform="matrix( 7.2726287841796875, 0, 0, 7.2726287841796875, -905.45,-2578.5) ">
<use xlink:href="#Layer0_0_MEMBER_0_FILL"/>
</g>

<g transform="matrix( 6.4516143798828125, 0, 0, 6.4516143798828125, -1678.7,-2628.5) ">
<use xlink:href="#Layer0_0_MEMBER_1_FILL"/>
</g>
</svg>
