
<svg xmlns="http://www.w3.org/2000/svg" version="1.1" xmlns:xlink="http://www.w3.org/1999/xlink" preserveAspectRatio="none" x="0px" y="0px" width="200px" height="200px" viewBox="0 0 200 200">
<defs>
<g id="Layer0_0_MEMBER_0_MEMBER_0_FILL">
<path fill="#42C1FF" stroke="none" d="
M 191.6 363.3
Q 191.6 372.35 200.65 372.35
L 213.5 372.35
Q 222.6 372.35 222.6 363.3
L 222.6 350.45
Q 222.6 341.35 213.5 341.35
L 200.65 341.35
Q 191.6 341.35 191.6 350.45
L 191.6 363.3 Z"/>
</g>

<g id="Layer0_0_MEMBER_0_MEMBER_1_FILL">
<path fill="#FFFFFF" stroke="none" d="
M 143.95 354.55
L 132.55 354.55
Q 124.5 354.55 124.5 362.6
L 124.5 374
Q 124.5 382.05 132.55 382.05
L 143.95 382.05
Q 152 382.05 152 374
L 152 362.6
Q 152 354.55 143.95 354.55 Z"/>
</g>

<g id="Layer0_0_MEMBER_1_FILL">
<path fill="#007AB5" stroke="none" d="
M 275.5 472.65
L 275.45 472.65
Q 271.9 472.3 269.1 474.55
L 269.05 474.55
Q 266.3 476.75 265.85 480.3
L 265.8 480.35
Q 265.4 483.95 267.65 486.8 269.9 489.65 273.55 489.95 276.35 490.25 278.65 489
L 282.45 493.8
Q 282.8 494.25 283.45 494.35 284.05 494.4 284.55 494.05 285 493.65 285.1 493.05 285.15 492.4 284.8 491.95
L 281 487.1
Q 282.8 485.1 283.15 482.3
L 283.15 482.25
Q 283.5 478.75 281.3 475.95 279.05 473.1 275.5 472.65
M 278.95 477.8
Q 280.4 479.65 280.15 481.95 279.9 484.3 278.05 485.75
L 278.05 485.8 278 485.8
Q 276.2 487.25 273.85 486.95
L 273.8 486.95
Q 271.4 486.75 270 484.95 268.5 483.05 268.8 480.7 269.1 478.35 270.95 476.9 272.8 475.4 275.15 475.65 277.45 475.9 278.95 477.8
M 273.75 477.9
Q 273.45 478.2 273.45 478.6
L 273.45 480.45 271.6 480.45
Q 271.2 480.45 270.9 480.75 270.6 481.05 270.6 481.45 270.6 481.85 270.9 482.15 271.2 482.45 271.6 482.45
L 273.45 482.45 273.45 484.35
Q 273.45 484.75 273.75 485.05 274.05 485.35 274.45 485.35 274.85 485.35 275.15 485.05 275.45 484.75 275.45 484.35
L 275.45 482.45 277.35 482.45
Q 277.75 482.45 278.05 482.15 278.35 481.85 278.35 481.45 278.35 481.05 278.05 480.75 277.75 480.45 277.35 480.45
L 275.45 480.45 275.45 478.6
Q 275.45 478.2 275.15 477.9 274.85 477.6 274.45 477.6 274.05 477.6 273.75 477.9 Z"/>
</g>
</defs>

<g transform="matrix( 6.2791900634765625, 0, 0, 6.280487060546875, -1203.1,-2143.6) ">
<use xlink:href="#Layer0_0_MEMBER_0_MEMBER_0_FILL"/>
</g>

<g transform="matrix( 7.078277587890625, 0, 0, 7.079742431640625, -875.9,-2505.05) ">
<use xlink:href="#Layer0_0_MEMBER_0_MEMBER_1_FILL"/>
</g>

<g transform="matrix( 6.2791900634765625, 0, 0, 6.280487060546875, -1623.15,-2927.45) ">
<use xlink:href="#Layer0_0_MEMBER_1_FILL"/>
</g>
</svg>
