
<svg xmlns="http://www.w3.org/2000/svg" version="1.1" xmlns:xlink="http://www.w3.org/1999/xlink" preserveAspectRatio="none" x="0px" y="0px" width="200px" height="200px" viewBox="0 0 200 200">
<defs>
<g id="Layer0_0_MEMBER_0_FILL">
<path fill="#0080BD" stroke="none" d="
M 191.6 350.45
L 191.6 363.3
Q 191.6 372.35 200.65 372.35
L 213.5 372.35
Q 222.6 372.35 222.6 363.3
L 222.6 350.45
Q 222.6 341.35 213.5 341.35
L 200.65 341.35
Q 191.6 341.35 191.6 350.45 Z"/>
</g>

<g id="Layer0_0_MEMBER_1_FILL">
<path fill="#FFFFFF" stroke="none" d="
M 249.2 414.55
Q 248.95 413.7 248.15 413.35 247.3 412.95 246.4 413.3 245.7 413.6 245.35 415.4 245.15 416.95 245.3 418.5 245.5 419.85 245.4 420.45 245.3 421 244.9 421.05 244.6 421.05 244.4 420.85 244.3 420.6 244.1 419.95 243.95 419.4 243.65 417.65 243.35 415.75 243.25 415.15 243.05 414.1 242.4 413.5 241.7 412.75 240.65 413.05 239.65 413.4 239.4 414.45 239.25 415.25 239.5 416.7 239.75 417.6 240.7 419.25 241.7 420.95 241.8 421.6 242 422.2 241.7 422.5 241.4 422.85 241 422.65 240.7 422.6 240.3 421.9 239.9 421.15 239.3 419.75 238.05 416.75 236.9 416.3 236.3 416.1 235.35 416.7 234.4 417.3 234.05 418.2 233.75 418.95 235.05 420.6 235.85 421.6 236.9 422.55 237.65 423.15 239.25 425.4 239.7 425.95 239.55 426.45 239.5 426.95 239 426.95 238.8 426.95 238.7 426.9 238.45 426.85 237.8 426.5 237.05 426.1 236.05 426.1 234.9 426.05 233.9 426.5 233 426.9 232.5 427.9 232.3 428.45 232.25 428.85 232.1 430.45 233.2 430.9 234.2 431.3 235.55 430.65 236.6 430.25 237.9 430.4 239.15 430.6 239.4 430.65 239.7 430.75 239.9 431 239.95 431.15 240.4 431.95 240.9 432.75 241.7 433.25 242.2 433.6 242.65 433.65 243.05 433.7 243.15 433.85 243.2 434 243.25 434.4 243.3 434.7 243.65 434.9 243.95 435 244.35 435 245.9 435.2 247.75 433.95 248.3 433.6 248.9 433 249.45 432.35 249.8 431.8 250.4 430.8 249.9 430.05 249.85 430 249.7 429.6 249.6 429.55 249.65 429.5 249.9 429 249.95 427.85 250.05 426.9 249.85 426.1 249.8 425.55 249.9 425.15 250.25 424.65 250.55 424.2 250.95 423.55 252.05 422.55 252.95 421.55 253.65 420.6 254.1 420.05 254.2 419.2 254.3 418.05 253.35 417.5 252.4 416.95 251.4 417.7 250.7 418.25 250.2 419.2 249.9 419.65 249.4 420.6 248.9 421.4 248.55 421.25 248.15 421.05 248.05 420.75 247.95 420.6 248.1 420.1 248.65 418.55 248.9 417.5 249.4 415.65 249.2 414.55 Z"/>
</g>
</defs>

<g transform="matrix( 6.4516143798828125, 0, 0, 6.4516143798828125, -1236.15,-2202.25) ">
<use xlink:href="#Layer0_0_MEMBER_0_FILL"/>
</g>

<g transform="matrix( 6.4516143798828125, 0, 0, 6.4516143798828125, -1457.45,-2623.55) ">
<use xlink:href="#Layer0_0_MEMBER_1_FILL"/>
</g>
</svg>
