
<svg xmlns="http://www.w3.org/2000/svg" version="1.1" xmlns:xlink="http://www.w3.org/1999/xlink" preserveAspectRatio="none" x="0px" y="0px" width="200px" height="200px" viewBox="0 0 200 200">
<defs>
<g id="Layer0_0_MEMBER_0_MEMBER_0_FILL">
<path fill="#42C1FF" stroke="none" d="
M 191.6 363.3
Q 191.6 372.35 200.65 372.35
L 213.5 372.35
Q 222.6 372.35 222.6 363.3
L 222.6 350.45
Q 222.6 341.35 213.5 341.35
L 200.65 341.35
Q 191.6 341.35 191.6 350.45
L 191.6 363.3 Z"/>
</g>

<g id="Layer0_0_MEMBER_0_MEMBER_1_FILL">
<path fill="#FFFFFF" stroke="none" d="
M 143.95 354.55
L 132.55 354.55
Q 124.5 354.55 124.5 362.6
L 124.5 374
Q 124.5 382.05 132.55 382.05
L 143.95 382.05
Q 152 382.05 152 374
L 152 362.6
Q 152 354.55 143.95 354.55 Z"/>
</g>

<g id="Layer0_0_MEMBER_1_FILL">
<path fill="#007AB5" stroke="none" d="
M 245.65 472.7
Q 244.9 473 244.6 474.8 244.35 476.35 244.55 477.95 244.75 479.3 244.65 479.9 244.55 480.45 244.15 480.5 243.8 480.55 243.65 480.3 243.5 480.05 243.3 479.4 243.2 478.85 242.85 477.1 242.55 475.2 242.45 474.55 242.25 473.5 241.6 472.9 240.85 472.15 239.8 472.45 238.8 472.8 238.55 473.85 238.4 474.7 238.7 476.15 238.9 477.05 239.85 478.7 240.85 480.4 241 481.1 241.2 481.7 240.9 482 240.6 482.3 240.2 482.15 239.85 482.1 239.45 481.35 239.05 480.65 238.45 479.25 237.2 476.2 236.05 475.75 235.4 475.55 234.45 476.15 233.5 476.75 233.15 477.65 232.85 478.4 234.2 480.1 235 481.1 236.05 482.05 236.8 482.65 238.4 484.9 238.85 485.45 238.75 486 238.7 486.5 238.2 486.5 237.95 486.5 237.85 486.45 237.6 486.35 236.95 486.05 236.2 485.65 235.2 485.65 234 485.6 233 486.05 232.1 486.45 231.6 487.45 231.4 488 231.3 488.4 231.2 490 232.3 490.45 233.3 490.85 234.7 490.25 235.75 489.8 237.05 489.95 238.3 490.2 238.55 490.25 238.85 490.3 239.05 490.6 239.15 490.75 239.6 491.55 240.1 492.35 240.85 492.85 241.4 493.2 241.85 493.25 242.25 493.3 242.35 493.45 242.4 493.6 242.45 494 242.5 494.3 242.85 494.5 243.15 494.65 243.55 494.65 245.15 494.8 247 493.55 247.55 493.2 248.15 492.6 248.75 491.95 249.1 491.35 249.7 490.35 249.2 489.6 249.15 489.55 248.95 489.2 248.85 489.1 248.9 489.05 249.2 488.55 249.25 487.4 249.3 486.4 249.15 485.65 249.05 485.1 249.2 484.7 249.55 484.15 249.8 483.7 250.25 483.05 251.3 482.05 252.25 481.05 252.95 480.1 253.4 479.5 253.5 478.65 253.6 477.5 252.65 476.95 251.7 476.35 250.7 477.15 250 477.7 249.45 478.65 249.2 479.1 248.7 480.1 248.2 480.85 247.8 480.75 247.4 480.55 247.3 480.25 247.2 480.05 247.35 479.55 247.9 478 248.2 476.95 248.7 475.1 248.45 473.95 248.25 473.1 247.4 472.75 246.55 472.35 245.65 472.7 Z"/>
</g>
</defs>

<g transform="matrix( 6.2809600830078125, 0, 0, 6.2755889892578125, -1203.4,-2141.8) ">
<use xlink:href="#Layer0_0_MEMBER_0_MEMBER_0_FILL"/>
</g>

<g transform="matrix( 7.08026123046875, 0, 0, 7.0742034912109375, -876.2,-2503) ">
<use xlink:href="#Layer0_0_MEMBER_0_MEMBER_1_FILL"/>
</g>

<g transform="matrix( 6.2809600830078125, 0, 0, 6.2755889892578125, -1413.5,-2925) ">
<use xlink:href="#Layer0_0_MEMBER_1_FILL"/>
</g>
</svg>
