
<svg xmlns="http://www.w3.org/2000/svg" version="1.1" xmlns:xlink="http://www.w3.org/1999/xlink" preserveAspectRatio="none" x="0px" y="0px" width="297px" height="200px" viewBox="0 0 297 200">
<defs>
<g id="Layer0_0_MEMBER_0_FILL">
<path fill="#42C1FF" stroke="none" d="
M 240.7 3.8
Q 262.1927734375 3.8 275.65 11.8 261.3921875 0 235.3 0
L 59 0
Q 1.75 0 1.75 57.6
L 1.75 138.9
Q 1.75 174.84453125 24.25 188.25 7.15 174.0419921875 7.15 142.7
L 7.15 61.4
Q 7.15 3.8 64.4 3.8
L 240.7 3.8 Z"/>

<path fill="#FFFFFF" stroke="none" d="
M 298.3 61.4
Q 298.3 25.2927734375 275.65 11.8 262.1927734375 3.8 240.7 3.8
L 64.4 3.8
Q 7.15 3.8 7.15 61.4
L 7.15 142.7
Q 7.15 174.0419921875 24.25 188.25 38.4646484375 200 64.4 200
L 240.7 200
Q 298.3 200 298.3 142.7
L 298.3 61.4
M 139.75 77.15
L 139.75 96.8
Q 140.7 108.05 129.45 107.1
L 83.6 107.1 80.35 110.85 131.35 110.85
Q 138.35 110.85 140.25 115.05 142.55 118.8 138.35 123.95 132.75 129.55 116.35 139.85 129 142.65 144 143.6 149.6 144.05 149.6 150.15 148.2 156.25 142.55 156.25 122.9 155.3 97.2 147.35 73.8 155.3 48.5 156.7 42.45 156.7 41.5 150.6 41.5 144.05 47.1 143.6 67.7 142.65 78.95 139.85 71 136.1 62.1 128.15 56.95 131.45 51.35 134.25 45.25 136.6 42.45 130.95 40.55 124.9 46.65 121.6 59.75 114.6 66.3 107.1
L 64.45 107.1
Q 54.6 107.55 55.05 95.85
L 55.05 72.95
Q 52.25 75.75 49.45 76.7 37.75 74.35 43.85 64.5 52.75 58.45 64.9 46.75 72.4 41.6 75.65 50.5
L 141.15 50.5
Q 146.8 50.95 147.25 57.05 146.8 63.1 141.15 63.6
L 67.25 63.6 63.95 66.85 129 66.85
Q 139.75 66.85 139.75 77.15
M 252.55 79.05
Q 258.65 79.95 258.65 85.6 258.65 99.6 249.75 138.45
L 263.3 138.45
Q 269.4 138.9 269.85 144.55 269.85 151.1 264.25 151.55
L 193.6 151.55
Q 187.05 151.1 186.55 144.55 187.5 138.9 194.05 138.45
L 234.3 138.45
Q 242.25 105.25 244.1 83.7 245.55 78.55 252.55 79.05
M 268.9 65.9
Q 268.45 72.45 262.35 72.95
L 196.85 72.95
Q 190.3 72.45 189.85 65.9 190.3 59.35 196.85 58.9
L 222.6 58.9
Q 219.8 56.1 218.85 54.2 216.05 43.45 228.2 44.4 241.3 53.3 238.5 58.9
L 261.9 58.9
Q 268.45 59.35 268.9 65.9
M 189.85 52.8
Q 188.45 63.1 184.25 73.9
L 184.25 150.6
Q 183.75 157.65 177.2 158.1 170.65 157.65 170.2 150.6
L 170.2 103.35
Q 166.9 108.05 161.3 104.75 157.1 100.55 159.45 95.4 171.15 72 174.85 50 176.25 44.85 183.75 45.35 190.3 47.2 189.85 52.8
M 202.95 78.55
Q 209.5 78.1 211.35 84.65 218.4 119.25 218.85 126.75 218.4 132.35 212.3 133.3 206.2 133.75 204.8 128.15 203.9 122.55 200.15 102.9 197.8 92.6 196.85 87 196.4 80.45 202.95 78.55
M 96.7 133.75
Q 108.4 130.05 116.85 123.5
L 78 123.5
Q 85.5 129.1 96.7 133.75
M 126.2 82.3
L 126.2 78.55 68.65 78.55 68.65 82.3 126.2 82.3
M 126.2 95.85
L 126.2 92.15 68.65 92.15 68.65 95.85 126.2 95.85 Z"/>

<path fill="#007AB5" stroke="none" d="
M 211.35 84.65
Q 209.5 78.1 202.95 78.55 196.4 80.45 196.85 87 197.8 92.6 200.15 102.9 203.9 122.55 204.8 128.15 206.2 133.75 212.3 133.3 218.4 132.35 218.85 126.75 218.4 119.25 211.35 84.65
M 184.25 73.9
Q 188.45 63.1 189.85 52.8 190.3 47.2 183.75 45.35 176.25 44.85 174.85 50 171.15 72 159.45 95.4 157.1 100.55 161.3 104.75 166.9 108.05 170.2 103.35
L 170.2 150.6
Q 170.65 157.65 177.2 158.1 183.75 157.65 184.25 150.6
L 184.25 73.9
M 262.35 72.95
Q 268.45 72.45 268.9 65.9 268.45 59.35 261.9 58.9
L 238.5 58.9
Q 241.3 53.3 228.2 44.4 216.05 43.45 218.85 54.2 219.8 56.1 222.6 58.9
L 196.85 58.9
Q 190.3 59.35 189.85 65.9 190.3 72.45 196.85 72.95
L 262.35 72.95
M 258.65 85.6
Q 258.65 79.95 252.55 79.05 245.55 78.55 244.1 83.7 242.25 105.25 234.3 138.45
L 194.05 138.45
Q 187.5 138.9 186.55 144.55 187.05 151.1 193.6 151.55
L 264.25 151.55
Q 269.85 151.1 269.85 144.55 269.4 138.9 263.3 138.45
L 249.75 138.45
Q 258.65 99.6 258.65 85.6
M 139.75 96.8
L 139.75 77.15
Q 139.75 66.85 129 66.85
L 63.95 66.85 67.25 63.6 141.15 63.6
Q 146.8 63.1 147.25 57.05 146.8 50.95 141.15 50.5
L 75.65 50.5
Q 72.4 41.6 64.9 46.75 52.75 58.45 43.85 64.5 37.75 74.35 49.45 76.7 52.25 75.75 55.05 72.95
L 55.05 95.85
Q 54.6 107.55 64.45 107.1
L 66.3 107.1
Q 59.75 114.6 46.65 121.6 40.55 124.9 42.45 130.95 45.25 136.6 51.35 134.25 56.95 131.45 62.1 128.15 71 136.1 78.95 139.85 67.7 142.65 47.1 143.6 41.5 144.05 41.5 150.6 42.45 156.7 48.5 156.7 73.8 155.3 97.2 147.35 122.9 155.3 142.55 156.25 148.2 156.25 149.6 150.15 149.6 144.05 144 143.6 129 142.65 116.35 139.85 132.75 129.55 138.35 123.95 142.55 118.8 140.25 115.05 138.35 110.85 131.35 110.85
L 80.35 110.85 83.6 107.1 129.45 107.1
Q 140.7 108.05 139.75 96.8
M 126.2 92.15
L 126.2 95.85 68.65 95.85 68.65 92.15 126.2 92.15
M 126.2 78.55
L 126.2 82.3 68.65 82.3 68.65 78.55 126.2 78.55
M 116.85 123.5
Q 108.4 130.05 96.7 133.75 85.5 129.1 78 123.5
L 116.85 123.5 Z"/>
</g>
</defs>

<g transform="matrix( 1, 0, 0, 1, -1.5,0) ">
<use xlink:href="#Layer0_0_MEMBER_0_FILL"/>
</g>
</svg>
