
<svg xmlns="http://www.w3.org/2000/svg" version="1.1" xmlns:xlink="http://www.w3.org/1999/xlink" preserveAspectRatio="none" x="0px" y="0px" width="297px" height="200px" viewBox="0 0 297 200">
<defs>
<g id="Layer0_0_MEMBER_0_FILL">
<path fill="#0080BD" stroke="none" d="
M 296.9 58.7
Q 296.9 0 238.2 0
L 58.55 0
Q 0.15 0 0.15 58.7
L 0.15 141.6
Q 0.15 200 58.55 200
L 238.2 200
Q 296.9 200 296.9 141.6
L 296.9 58.7
M 135.7 75.85
L 135.7 95.15
Q 136.65 106.15 125.6 105.25
L 80.55 105.25 77.35 108.9 127.45 108.9
Q 134.35 108.9 136.15 113.05 138.45 116.75 134.35 121.8 128.8 127.3 112.75 137.4 125.15 140.2 139.85 141.1 145.35 141.55 145.35 147.55 144 153.5 138.45 153.5 119.15 152.6 93.9 144.8 70.9 152.6 46.1 153.95 40.1 153.95 39.2 148 39.2 141.55 44.7 141.1 64.9 140.2 75.95 137.4 68.15 133.75 59.4 125.95 54.35 129.15 48.85 131.9 42.85 134.2 40.1 128.7 38.25 122.7 44.25 119.5 57.1 112.6 63.55 105.25
L 61.7 105.25
Q 52.05 105.7 52.5 94.2
L 52.5 71.7
Q 49.75 74.45 47 75.35 35.5 73.05 41.5 63.4 50.2 57.45 62.15 45.95 69.5 40.9 72.75 49.6
L 137.1 49.6
Q 142.6 50.1 143.05 56.05 142.6 62.05 137.1 62.5
L 64.45 62.5 61.25 65.7 125.15 65.7
Q 135.7 65.7 135.7 75.85
M 246.45 77.65
Q 252.45 78.6 252.45 84.1 252.45 97.9 243.7 136.05
L 257.05 136.05
Q 263 136.5 263.45 142 263.45 148.45 257.95 148.9
L 188.55 148.9
Q 182.1 148.45 181.65 142 182.55 136.5 189 136.05
L 228.55 136.05
Q 236.35 103.4 238.2 82.25 239.55 77.2 246.45 77.65
M 262.55 64.8
Q 262.1 71.25 256.1 71.7
L 191.75 71.7
Q 185.35 71.25 184.85 64.8 185.35 58.35 191.75 57.9
L 217.05 57.9
Q 214.3 55.15 213.35 53.3 210.6 42.75 222.55 43.65 235.45 52.4 232.7 57.9
L 255.65 57.9
Q 262.1 58.35 262.55 64.8
M 170.15 49.15
Q 171.55 44.1 178.9 44.55 185.35 46.4 184.85 51.9 183.5 62.05 179.35 72.6
L 179.35 148
Q 178.9 154.9 172.45 155.35 166.05 154.9 165.55 148
L 165.55 101.55
Q 162.35 106.15 156.85 102.95 152.7 98.8 155 93.75 166.5 70.75 170.15 49.15
M 191.75 85.5
Q 191.3 79.05 197.75 77.2 204.2 76.75 206 83.2 212.9 117.2 213.35 124.55 212.9 130.05 206.95 131 200.95 131.45 199.6 125.95 198.65 120.4 195 101.1 192.7 91 191.75 85.5
M 93.4 131.45
Q 104.9 127.75 113.2 121.35
L 75.05 121.35
Q 82.4 126.85 93.4 131.45
M 122.4 80.9
L 122.4 77.2 65.85 77.2 65.85 80.9 122.4 80.9
M 122.4 94.2
L 122.4 90.55 65.85 90.55 65.85 94.2 122.4 94.2 Z"/>

<path fill="#FFFFFF" stroke="none" d="
M 197.75 77.2
Q 191.3 79.05 191.75 85.5 192.7 91 195 101.1 198.65 120.4 199.6 125.95 200.95 131.45 206.95 131 212.9 130.05 213.35 124.55 212.9 117.2 206 83.2 204.2 76.75 197.75 77.2
M 178.9 44.55
Q 171.55 44.1 170.15 49.15 166.5 70.75 155 93.75 152.7 98.8 156.85 102.95 162.35 106.15 165.55 101.55
L 165.55 148
Q 166.05 154.9 172.45 155.35 178.9 154.9 179.35 148
L 179.35 72.6
Q 183.5 62.05 184.85 51.9 185.35 46.4 178.9 44.55
M 256.1 71.7
Q 262.1 71.25 262.55 64.8 262.1 58.35 255.65 57.9
L 232.7 57.9
Q 235.45 52.4 222.55 43.65 210.6 42.75 213.35 53.3 214.3 55.15 217.05 57.9
L 191.75 57.9
Q 185.35 58.35 184.85 64.8 185.35 71.25 191.75 71.7
L 256.1 71.7
M 252.45 84.1
Q 252.45 78.6 246.45 77.65 239.55 77.2 238.2 82.25 236.35 103.4 228.55 136.05
L 189 136.05
Q 182.55 136.5 181.65 142 182.1 148.45 188.55 148.9
L 257.95 148.9
Q 263.45 148.45 263.45 142 263 136.5 257.05 136.05
L 243.7 136.05
Q 252.45 97.9 252.45 84.1
M 135.7 95.15
L 135.7 75.85
Q 135.7 65.7 125.15 65.7
L 61.25 65.7 64.45 62.5 137.1 62.5
Q 142.6 62.05 143.05 56.05 142.6 50.1 137.1 49.6
L 72.75 49.6
Q 69.5 40.9 62.15 45.95 50.2 57.45 41.5 63.4 35.5 73.05 47 75.35 49.75 74.45 52.5 71.7
L 52.5 94.2
Q 52.05 105.7 61.7 105.25
L 63.55 105.25
Q 57.1 112.6 44.25 119.5 38.25 122.7 40.1 128.7 42.85 134.2 48.85 131.9 54.35 129.15 59.4 125.95 68.15 133.75 75.95 137.4 64.9 140.2 44.7 141.1 39.2 141.55 39.2 148 40.1 153.95 46.1 153.95 70.9 152.6 93.9 144.8 119.15 152.6 138.45 153.5 144 153.5 145.35 147.55 145.35 141.55 139.85 141.1 125.15 140.2 112.75 137.4 128.8 127.3 134.35 121.8 138.45 116.75 136.15 113.05 134.35 108.9 127.45 108.9
L 77.35 108.9 80.55 105.25 125.6 105.25
Q 136.65 106.15 135.7 95.15
M 122.4 90.55
L 122.4 94.2 65.85 94.2 65.85 90.55 122.4 90.55
M 122.4 77.2
L 122.4 80.9 65.85 80.9 65.85 77.2 122.4 77.2
M 113.2 121.35
Q 104.9 127.75 93.4 131.45 82.4 126.85 75.05 121.35
L 113.2 121.35 Z"/>
</g>
</defs>

<g transform="matrix( 1, 0, 0, 1, 0,0) ">
<use xlink:href="#Layer0_0_MEMBER_0_FILL"/>
</g>
</svg>
