<?xml version="1.0" encoding="utf-8"?>
<!-- Generator: Adobe Illustrator 19.0.0, SVG Export Plug-In . SVG Version: 6.00 Build 0)  -->
<svg version="1.1" id="图层_1" xmlns="http://www.w3.org/2000/svg" xmlns:xlink="http://www.w3.org/1999/xlink" x="0px" y="0px"
	 viewBox="0 0 30 20" style="enable-background:new 0 0 30 20;" xml:space="preserve">
<style type="text/css">
	.st0{fill-rule:evenodd;clip-rule:evenodd;fill:#FFFF33;}
</style>
<g id="XMLID_12_">
	<path id="XMLID_27_" class="st0" d="M26.5,9.1l-8.3-8.3c-0.5-0.5-1.2-0.5-1.7,0c-0.5,0.5-0.5,1.2,0,1.7L24,10l-7.4,7.4
		c-0.5,0.5-0.5,1.2,0,1.7c0.5,0.5,1.2,0.5,1.7,0l8.3-8.3c0.2-0.2,0.4-0.6,0.4-0.9C26.9,9.7,26.8,9.4,26.5,9.1z M5.2,0.9
		C4.7,0.4,4,0.4,3.5,0.9C3,1.3,3,2.1,3.5,2.6l7.4,7.4l-7.4,7.4c-0.5,0.5-0.5,1.2,0,1.7c0.5,0.5,1.2,0.5,1.7,0l8.3-8.3
		c0.2-0.2,0.4-0.6,0.4-0.9c0-0.3-0.1-0.6-0.4-0.9L5.2,0.9z"/>
</g>
</svg>
