
<svg xmlns="http://www.w3.org/2000/svg" version="1.1" xmlns:xlink="http://www.w3.org/1999/xlink" preserveAspectRatio="none" x="0px" y="0px" width="200px" height="200px" viewBox="0 0 200 200">
<defs>
<g id="Layer0_0_MEMBER_0_MEMBER_0_FILL">
<path fill="#42C1FF" stroke="none" d="
M 191.6 363.3
Q 191.6 372.35 200.65 372.35
L 213.5 372.35
Q 222.6 372.35 222.6 363.3
L 222.6 350.45
Q 222.6 341.35 213.5 341.35
L 200.65 341.35
Q 191.6 341.35 191.6 350.45
L 191.6 363.3 Z"/>
</g>

<g id="Layer0_0_MEMBER_0_MEMBER_1_FILL">
<path fill="#FFFFFF" stroke="none" d="
M 143.95 354.55
L 132.55 354.55
Q 124.5 354.55 124.5 362.6
L 124.5 374
Q 124.5 382.05 132.55 382.05
L 143.95 382.05
Q 152 382.05 152 374
L 152 362.6
Q 152 354.55 143.95 354.55 Z"/>
</g>

<g id="Layer0_0_MEMBER_1_FILL">
<path fill="#007AB5" stroke="none" d="
M 18.6 -230.7
Q 17.65 -231.95 16.7 -233.2 2.6 -251.1 -19.7 -253.95
L -20 -253.95
Q -42.3 -256.15 -59.9 -242
L -60.2 -242
Q -77.5 -228.15 -80.3 -205.85
L -80.6 -205.55
Q -83.15 -182.95 -69 -165 -54.85 -147.1 -31.95 -145.25 -14.35 -143.35 0.05 -151.2
L 23.95 -121.05
Q 26.15 -118.2 30.2 -117.6 34 -117.25 37.1 -119.45 39.95 -122 40.55 -125.75 40.9 -129.85 38.7 -132.65
L 14.85 -163.15
Q 16.7 -165.35 18.6 -167.85 26.45 -178.85 28.35 -193.3
L 28.35 -193.6
Q 30.55 -214.05 18.6 -230.7
M 1.95 -221.55
Q 11.05 -209.95 9.5 -195.5 7.9 -180.75 -3.7 -171.6
L -3.7 -171.3 -4 -171.3
Q -15.3 -162.2 -30.05 -164.1
L -30.4 -164.1
Q -45.45 -165.35 -54.25 -176.65 -63.65 -188.6 -61.8 -203.35 -59.9 -218.1 -48.3 -227.25 -36.65 -236.65 -21.9 -235.1 -7.45 -233.5 1.95 -221.55
M -48.9 -203.05
Q -50.8 -201.15 -50.8 -198.65 -50.8 -196.1 -48.9 -194.25 -47 -192.35 -44.5 -192.35
L -8.4 -192.35
Q -5.9 -192.35 -4 -194.25 -2.15 -196.1 -2.15 -198.65 -2.15 -201.15 -4 -203.05 -5.9 -204.9 -8.4 -204.9
L -44.5 -204.9
Q -47 -204.9 -48.9 -203.05 Z"/>
</g>
</defs>

<g transform="matrix( 6.279296875, 0, 0, 6.28375244140625, -1203.1,-2144.95) ">
<use xlink:href="#Layer0_0_MEMBER_0_MEMBER_0_FILL"/>
</g>

<g transform="matrix( 7.078369140625, 0, 0, 7.0834197998046875, -875.95,-2506.55) ">
<use xlink:href="#Layer0_0_MEMBER_0_MEMBER_1_FILL"/>
</g>

<g transform="matrix( 1, 0, 0, 1, 129.95,294.8) ">
<use xlink:href="#Layer0_0_MEMBER_1_FILL"/>
</g>
</svg>
