
<svg xmlns="http://www.w3.org/2000/svg" version="1.1" xmlns:xlink="http://www.w3.org/1999/xlink" preserveAspectRatio="none" x="0px" y="0px" width="200px" height="200px" viewBox="0 0 200 200">
<defs>
<g id="Layer0_0_MEMBER_0_FILL">
<path fill="#0080BD" stroke="none" d="
M 143.95 354.55
L 132.55 354.55
Q 124.5 354.55 124.5 362.6
L 124.5 374
Q 124.5 382.05 132.55 382.05
L 143.95 382.05
Q 152 382.05 152 374
L 152 362.6
Q 152 354.55 143.95 354.55 Z"/>
</g>

<g id="Layer0_0_MEMBER_1_FILL">
<path fill="#FFFFFF" stroke="none" d="
M 316.35 416.95
Q 316.2 416.7 316.05 416.55 313.8 413.7 310.3 413.25
L 310.25 413.25
Q 306.75 412.95 303.95 415.15
L 303.9 415.15
Q 301.2 417.3 300.75 420.85
L 300.7 420.9
Q 300.3 424.45 302.5 427.3 304.75 430.05 308.35 430.4 311.15 430.65 313.4 429.45
L 317.2 434.2
Q 317.55 434.6 318.15 434.75 318.75 434.8 319.25 434.45 319.7 434.05 319.8 433.45 319.85 432.8 319.5 432.35
L 315.75 427.55
Q 316.05 427.2 316.35 426.85 317.6 425.1 317.85 422.85
L 317.85 422.75
Q 318.2 419.55 316.35 416.95
M 309.95 416.2
Q 312.25 416.5 313.7 418.35 315.15 420.15 314.9 422.45 314.65 424.8 312.8 426.2
L 312.8 426.3 312.75 426.3
Q 310.95 427.7 308.7 427.4
L 308.65 427.4
Q 306.25 427.2 304.85 425.45 303.35 423.55 303.7 421.2 303.95 418.9 305.8 417.45 307.65 416 309.95 416.2
M 313.1 421.95
Q 313.1 421.55 312.75 421.25 312.45 421 312.1 421
L 306.4 421
Q 306 421 305.7 421.25 305.4 421.55 305.4 421.95 305.4 422.4 305.7 422.65 306 422.95 306.4 422.95
L 312.1 422.95
Q 312.45 422.95 312.75 422.65 313.1 422.4 313.1 421.95 Z"/>
</g>
</defs>

<g transform="matrix( 7.2726287841796875, 0, 0, 7.2726287841796875, -905.45,-2578.5) ">
<use xlink:href="#Layer0_0_MEMBER_0_FILL"/>
</g>

<g transform="matrix( 6.4516143798828125, 0, 0, 6.4516143798828125, -1894.5,-2628.5) ">
<use xlink:href="#Layer0_0_MEMBER_1_FILL"/>
</g>
</svg>
