
<svg xmlns="http://www.w3.org/2000/svg" version="1.1" xmlns:xlink="http://www.w3.org/1999/xlink" preserveAspectRatio="none" x="0px" y="0px" width="120px" height="126px" viewBox="0 0 120 126">
<defs>
<g id="Layer0_0_FILL">
<path fill="#0099E2" stroke="none" d="
M -165.7 189.6
L -165.7 237.1 -40.6 237.1 -40.6 189.6 -165.7 189.6 Z"/>

<path fill="#C7E8FA" stroke="none" d="
M -165.7 237.1
L -165.7 240.6 -40.6 240.6 -40.6 237.1 -165.7 237.1 Z"/>
</g>

<g id="Layer0_1_FILL">
<path fill="#FFFFFF" stroke="none" d="
M -93.3 59.85
Q -93.35 59.6 -93.35 59.4
L -93.55 58.05
Q -94.5 57.2 -95.25 56.5 -95.05 58.2 -94.8 59.85
L -93.3 59.85
M -107.65 122.35
L -107.45 122.4 -107.2 122.4 -107.65 122.35 Z"/>

<path fill="#C7E8FA" stroke="none" d="
M -69.25 54.1
Q -69.25 54.05 -69.3 54.05
L -116.15 28.15
Q -116.2 28.1 -116.2 28.15 -116.25 28.15 -116.3 28.2
L -116.3 28.25 -155.65 67.05 -155.65 67.1 -156.8 69.35 -156.8 69.5
Q -156.8 69.55 -156.75 69.55 -153.65 71.85 -150.55 74.2
L -149.8 74.8
Q -151 79.45 -154.95 82.2
L -155.7 82.65 -155.85 82.45 -155.9 82.4
Q -156 82.35 -156 82.4
L -156.05 82.35
Q -156.35 82.1 -156.7 82.2
L -156.75 82.2 -156.75 82.15
Q -156.7 82.1 -156.7 82.05 -156.7 82 -156.75 81.95 -157.25 81.5 -157.9 81.3
L -158.45 81.2 -159.5 80.75
Q -160.1 80.45 -160.75 79.8
L -160.85 79.7
Q -161.25 79.3 -161.65 78.7 -162 78.05 -162.15 77.5 -162.4 77.05 -162.65 76
L -162.65 75.95 -162.75 75.65
Q -162.8 75.6 -162.85 75.6
L -163 75.5 -163.25 75.5
Q -164.3 75.65 -165.4 76.95
L -166.3 78.3
Q -166.9 79.45 -167.05 80.7
L -167.2 81.65 -167.2 81.85 -167.05 82.3 -167.05 82.35 -166.5 83.35 -166.5 83.4 -165.7 84.4 -165.6 84.5 -165.55 84.5
Q -163.95 85.95 -161.55 86.55
L -161.2 86.6 -160.7 86.6
Q -159.65 86.6 -158.95 86.4
L -158.45 86.25 -158.4 86.2 -158.2 86.05
Q -157.45 85.75 -156.85 84.9 -156.8 84.85 -156.8 84.8 -156.85 84.75 -156.85 84.7
L -156.9 84.7 -156.85 84.6 -156.4 84.65
Q -156 84.6 -155.75 84.25
L -155.6 83.75 -155.6 83.5
Q -155.55 83.45 -155.5 83.45
L -154.7 83
Q -150.5 80.1 -149.1 75.3
L -141.2 81.2
Q -141.1 81.8 -140.9 82.5 -140.9 82.6 -140.85 82.7 -140.4 83.85 -139.45 84.05
L -139.15 85.4
Q -137.9 90.2 -136.1 93.9
L -134.65 97.2
Q -134.9 97.15 -135.05 97.15 -135.35 97.05 -135.55 97.1 -136.45 97.05 -137.3 97.45 -138.4 97.85 -139.25 99 -139.3 99 -139.25 99.05 -141 101.6 -138.85 105.7
L -138.85 105.75 -138 107.05
Q -136.75 108.8 -135.2 110.05
L -135.25 110.05 -135.15 110.15 -135.1 110.15
Q -133.85 111.2 -132.35 111.65 -131.45 111.9 -130.7 111.75 -130.55 111.7 -130.35 111.65 -129.6 113.45 -128.65 114.8 -127.5 116.25 -126.35 117.05
L -125.7 117.55
Q -120.05 121.45 -110.55 122.4
L -107.45 122.65 -105.75 122.6
Q -105.7 122.6 -105.65 122.55 -105.6 122.5 -105.6 122.45
L -105.15 122.45 -104.9 122.4
Q -104.95 122.45 -104.9 122.5 -104.85 122.55 -104.8 122.55
L -102.7 122.35 -100.15 121.75
Q -100.15 121.7 -100.1 121.7 -100.05 121.65 -100.05 121.6
L -100.05 121.55 -99.8 121.5 -98.95 121.2 -98.85 121.15 -96.95 120.4
Q -92.15 118.4 -88.75 116
L -86.2 113.95 -86.15 113.9
Q -85.1 113.05 -83.95 111.7 -83.55 111.3 -83.2 110.85
L -65.45 110.85 -65.45 107.35 -117.05 107.35 -117.05 59.85 -94.8 59.85
Q -95.05 58.2 -95.25 56.5 -94.5 57.2 -93.55 58.05
L -93.35 59.4
Q -93.35 59.6 -93.3 59.85
L -69.5 59.85 -66.95 56.8 -67 56.75 -67 56.7
Q -67 56.65 -67.05 56.65
L -69.25 54.1
M -107.45 122.4
L -107.65 122.35 -107.2 122.4 -107.45 122.4 Z"/>

<path fill="#0099E2" stroke="none" d="
M -65.45 59.85
L -69.5 59.85 -93.3 59.85 -94.8 59.85 -117.05 59.85 -117.05 107.35 -65.45 107.35 -65.45 59.85 Z"/>
</g>

<g id="Layer0_1_MEMBER_0_MEMBER_0_MEMBER_0_MEMBER_0_MEMBER_0_FILL">
<path fill="#2E2335" stroke="none" d="
M 11.3 63.35
L 11.25 63.3
Q 11 63.05 10.75 62.55 10.05 61.4 9.95 61.1 9.15 61.85 8.4 62.1 9.05 62 9.7 61.7 10.3 62.5 10.7 62.9
L 11.8 63.9
Q 11.5962890625 63.7056640625 11.3 63.35 Z"/>
</g>

<g id="Layer0_1_MEMBER_0_MEMBER_0_MEMBER_0_MEMBER_0_MEMBER_1_FILL">
<path fill="#413646" stroke="none" d="
M 10.65 60.85
Q 10.45 60.4 10.15 59.3
L 10.2 59.7
Q 10.2 60.3 10.05 60.8
L 10 60.95 9.95 61.05
Q 10 61.05 9.95 61.1 10.05 61.4 10.75 62.55 11 63.05 11.25 63.3
L 11.3 63.35
Q 11.5962890625 63.7056640625 11.8 63.9
L 10.7 62.9
Q 10.3 62.5 9.7 61.7 9.2 63.2 8.6 64.25 9.55 65.4 10.7 66
L 11.1 66.2 10.65 66.05
Q 9.45 65.55 8.35 64.7
L 8.1 65.1 8.05 65.1
Q 8.8 65.85 9.4 66.2 10 66.6 11.2 67.05 9.95 66.75 9.1 66.25 8.55 65.95 7.95 65.35 7.75 65.9 7.95 66.4 8.2 66.95 8.8 67.4
L 8.9 67.5 8.95 67.5
Q 9.85 68.1 11.05 68.4
L 11.55 68.5
Q 12.95 68.7 14.3 68.35
L 14.55 68.3 14.95 68.1
Q 15.55 67.8 15.9 67.45 16.45 66.9 16.5 66.2 16.4 65.8 16.2 65.5
L 16.15 65.4 16.1 65.35
Q 15.65 64.9 15 64.7
L 14.45 64.6 13.4 64.15
Q 12.8 63.85 12.1 63.2
L 12 63.1
Q 11.6 62.7 11.2 62.05 10.85 61.4 10.65 60.85 Z"/>
</g>

<g id="Layer0_1_MEMBER_0_MEMBER_0_MEMBER_0_MEMBER_0_MEMBER_2_FILL">
<path fill="#261D2A" stroke="none" d="
M 24.25 55.8
L 23.75 55.25
Q 23.25 62 18.05 65.6
L 17.2 66.1 16.9 65.65
Q 16.6 65.4 16.25 65.5
L 16.2 65.5
Q 16.4 65.8 16.5 66.2 16.45 66.9 15.9 67.45 15.55 67.8 14.95 68.1
L 14.55 68.3 14.3 68.35
Q 12.95 68.7 11.55 68.5
L 11.05 68.4
Q 9.85 68.1 8.95 67.5
L 8.9 67.5 8.8 67.4
Q 8.2 66.95 7.95 66.4 7.75 65.9 7.95 65.35 8.55 65.95 9.1 66.25 9.95 66.75 11.2 67.05 10 66.6 9.4 66.2 8.8 65.85 8.05 65.1
L 8.1 65.1 8.35 64.7
Q 9.45 65.55 10.65 66.05
L 11.1 66.2 10.7 66
Q 9.55 65.4 8.6 64.25 9.2 63.2 9.7 61.7
L 9.55 62 7.85 64.6 7.8 64.65
Q 7.4 65.2 6.85 65.5 6.65 65.65 6.35 65.65 6.2 65.7 6 65.6
L 6.55 66.6 7.35 67.6 7.45 67.7
Q 9.05 69.15 11.4 69.7
L 11.75 69.75 12.25 69.75
Q 13.3 69.75 13.95 69.55
L 14.45 69.4 14.65 69.25
Q 15.4 68.95 16 68.1
L 16.1 67.9 16.55 67.95
Q 16.95 67.9 17.2 67.55
L 17.35 67.05 17.35 66.65 18.15 66.2
Q 23.45 62.5 24.25 55.8 Z"/>
</g>

<g id="Layer0_1_MEMBER_0_MEMBER_0_MEMBER_0_MEMBER_0_MEMBER_3_FILL">
<path fill="#4E4353" stroke="none" d="
M 7.7 60.6
Q 7.6 60.7 6.75 61.65 6.2 62.8 6 64
L 5.85 64.95 5.85 65.1 6 65.55 6 65.6
Q 6.2 65.7 6.35 65.65 6.65 65.65 6.85 65.5 7.4 65.2 7.8 64.65
L 7.85 64.6 9.55 62 9.7 61.7
Q 9.05 62 8.4 62.1 9.15 61.85 9.95 61.1
L 10 60.95
Q 10.05 60.6 9.9 60.15 9.75 59.55 9.15 59.6 8.5 59.75 7.7 60.6 Z"/>
</g>

<g id="Layer0_1_MEMBER_0_MEMBER_0_MEMBER_0_MEMBER_0_MEMBER_4_FILL">
<path fill="#6B5E71" stroke="none" d="
M 10.2 59.7
L 10.15 59.3 10.05 59 9.9 58.9 9.7 58.9
Q 8.7 59.05 7.65 60.3
L 6.75 61.65
Q 7.6 60.7 7.7 60.6 8.5 59.75 9.15 59.6 9.75 59.55 9.9 60.15 10.05 60.6 10 60.95
L 10.05 60.8
Q 10.2 60.3 10.2 59.7 Z"/>
</g>

<g id="Layer0_1_MEMBER_0_MEMBER_1_MEMBER_0_MEMBER_0_MEMBER_0_FILL">
<path fill="#6B5E71" stroke="none" d="
M 56.85 12.8
L 56.9 12.85 56.75 11.6 17.4 50.45 16.25 52.7 56.85 12.8 Z"/>
</g>

<g id="Layer0_1_MEMBER_0_MEMBER_1_MEMBER_0_MEMBER_0_MEMBER_1_FILL">
<path fill="#0A0808" stroke="none" d="
M 106 40.1
L 95.9 34.5 74.9 62.8 88.65 60.5 106 40.1 Z"/>
</g>

<g id="Layer0_1_MEMBER_0_MEMBER_1_MEMBER_0_MEMBER_0_MEMBER_2_FILL">
<path fill="#131313" stroke="none" d="
M 89.9 31.15
L 89.25 30.8 79.8 45.3 81.5 45.55 89.9 31.15
M 95.5 34.25
L 94.05 33.45 88.45 40.55 89.25 41.7 95.5 34.25
M 92.75 32.75
L 91.25 31.9 86.7 38.2 87.7 39.55 92.75 32.75 Z"/>
</g>

<g id="Layer0_1_MEMBER_0_MEMBER_1_MEMBER_0_MEMBER_0_MEMBER_3_FILL">
<path fill="#261D2A" stroke="none" d="
M 95.9 34.5
L 95.5 34.25 89.25 41.7 88.45 40.55 94.05 33.45 92.75 32.75 87.7 39.55 86.7 38.2 91.25 31.9 89.9 31.15 81.5 45.55 79.8 45.3 89.25 30.8 56.9 12.85 56.85 12.8 16.25 52.7 16.25 52.75 37.95 69 74.9 62.8 95.9 34.5 Z"/>
</g>

<g id="Layer0_1_MEMBER_0_MEMBER_1_MEMBER_0_MEMBER_0_MEMBER_4_FILL">
<path fill="#4E4353" stroke="none" d="
M 105.8 40
L 103.6 37.45 56.75 11.55 56.75 11.6 56.9 12.85 105.8 40 Z"/>
</g>

<g id="Layer0_1_MEMBER_0_MEMBER_2_MEMBER_0_MEMBER_0_MEMBER_0_FILL">
<path fill="#D48959" stroke="none" d="
M 92.55 73.1
L 92.5 73.15
Q 90.65 74.25 89.75 76.1 89.4 77 89.15 77.9 88.95 79.1 89 80.3
L 88.8 85.1
Q 89.15 86.55 90.8 87.5 91.75 88.05 92.65 87.9 93.45 87.8 94.15 87.4 95.45 86.6 96.35 85.25
L 96.4 85.15
Q 97.45 83.7 98.3 81.5
L 98.7 80.05
Q 99.7 75.55 97.35 73.6
L 97.3 73.55
Q 96.35 72.8 95.05 72.65 93.7 72.5 92.55 73.1
M 92.3 76.8
L 92.45 76.65
Q 93.25 75.8 94.45 75.65 95.15 75.85 95.6 76.4 95.45 76.35 95.3 76.4 95.05 76.45 94.9 76.7
L 94.8 76.85
Q 94.6 77.3 94.75 77.7 95.95 79.65 94.9 81.95
L 94.7 82.3
Q 94.2 83.15 93.1 83.6
L 91.9 83.85 91.65 83.8
Q 90.95 83.75 90.85 83.1
L 90.8 82.85 90.85 82.25
Q 91.1 82.25 91.2 82.15
L 91.25 82.1
Q 91.45 81.95 91.6 81.55 91.75 81.35 91.75 81.05
L 91.7 80.75
Q 91.6 80.25 91.15 79.95
L 91.05 79.85
Q 91.05 79.35 91.2 78.8 91.55 77.55 92.3 76.8 Z"/>
</g>

<g id="Layer0_1_MEMBER_0_MEMBER_2_MEMBER_0_MEMBER_0_MEMBER_1_FILL">
<path fill="#BC734E" stroke="none" d="
M 92.3 76.8
Q 91.55 77.55 91.2 78.8 91.05 79.35 91.05 79.85
L 91.15 79.95
Q 91.6 80.25 91.7 80.75
L 91.75 81.05
Q 91.75 81.35 91.6 81.55 91.45 81.95 91.25 82.1
L 91.2 82.15
Q 91.1 82.25 90.85 82.25
L 90.8 82.85 90.85 83.1
Q 90.95 83.75 91.65 83.8
L 91.9 83.85 93.1 83.6
Q 94.2 83.15 94.7 82.3
L 94.9 81.95
Q 95.95 79.65 94.75 77.7 94.6 77.3 94.8 76.85
L 94.9 76.7
Q 95.05 76.45 95.3 76.4 95.45 76.35 95.6 76.4 95.15 75.85 94.45 75.65 93.25 75.8 92.45 76.65
L 92.3 76.8 Z"/>
</g>

<g id="Layer0_1_MEMBER_0_MEMBER_3_MEMBER_0_MEMBER_0_MEMBER_0_FILL">
<path fill="#D48959" stroke="none" d="
M 33.8 82.35
L 33.8 82.4
Q 32.1 84.9 34.2 88.95
L 35.05 90.25
Q 36.3 92 37.8 93.25
L 37.9 93.35
Q 39.15 94.4 40.6 94.8 41.5 95.05 42.2 94.9 43.2 94.75 43.85 94 45.15 92.7 45.15 91.15
L 43.65 86.6
Q 43.3 85.2 42.85 84.3 42.4 83.45 41.75 82.75 40.35 81.1 38.3 80.6
L 38.25 80.6
Q 37 80.3 35.7 80.85 34.55 81.3 33.8 82.35
M 36.25 84.6
Q 36.5 83.95 37.15 83.6 38.25 83.4 39.35 84
L 39.5 84.1
Q 40.5 84.7 41.1 85.7
L 41.1 85.75
Q 41.4 86.2 41.55 86.7
L 41.45 86.8
Q 41.15 87.15 41.15 87.75
L 41.2 88.05 41.45 88.5
Q 41.75 88.9 41.95 88.95
L 42.05 88.95
Q 42.2 89 42.4 88.95
L 42.6 89.5 42.65 89.75
Q 42.75 90.35 42.05 90.65
L 41.8 90.8
Q 40.95 90.9 40.55 90.85 39.45 90.8 38.7 90.05
L 38.4 89.75
Q 36.8 87.9 37.4 85.65 37.4 85.1 37.15 84.85
L 37 84.7
Q 36.8 84.5 36.5 84.5
L 36.25 84.6 Z"/>
</g>

<g id="Layer0_1_MEMBER_0_MEMBER_3_MEMBER_0_MEMBER_0_MEMBER_1_FILL">
<path fill="#BC734E" stroke="none" d="
M 37.15 84.85
Q 37.4 85.1 37.4 85.65 36.8 87.9 38.4 89.75
L 38.7 90.05
Q 39.45 90.8 40.55 90.85 40.95 90.9 41.8 90.8
L 42.05 90.65
Q 42.75 90.35 42.65 89.75
L 42.6 89.5 42.4 88.95
Q 42.2 89 42.05 88.95
L 41.95 88.95
Q 41.75 88.9 41.45 88.5
L 41.2 88.05 41.15 87.75
Q 41.15 87.15 41.45 86.8
L 41.55 86.7
Q 41.4 86.2 41.1 85.75
L 41.1 85.7
Q 40.5 84.7 39.5 84.1
L 39.35 84
Q 38.25 83.4 37.15 83.6 36.5 83.95 36.25 84.6
L 36.5 84.5
Q 36.8 84.5 37 84.7
L 37.15 84.85 Z"/>
</g>

<g id="Layer0_1_MEMBER_0_MEMBER_4_MEMBER_0_MEMBER_0_MEMBER_0_FILL">
<path fill="#E1905F" stroke="none" d="
M 91.65 65.45
Q 91.55 63.05 91.25 61.4 91.4 62.45 91.4 63.55
L 91.55 73.4
Q 92.25 81.7 91.95 85.8
L 91.9 86.3 91.9 86.4
Q 91.15 91.35 86.55 95.25 83 98.25 79.05 100.5 76.15 102 73.75 102.85
L 73.4 102.95
Q 70.3 103.95 66.75 104
L 66.55 104.05 64.05 103.85
Q 57.1 103.2 49.95 100.3 45.35 98.2 43.15 94.6
L 42.35 93.15
Q 40.55 88.5 38.75 78.15
L 36.4 69
Q 36.6 70.75 37.1 73
L 39.05 80.1
Q 39.85 84.9 40.7 88.55
L 41.7 92.35
Q 42.85 95.85 44.4 98 45.55 99.45 46.65 100.25
L 47.3 100.75
Q 52.95 104.65 62.4 105.55
L 67.8 105.75 73.15 104.8 74 104.5 74.1 104.45 76 103.7
Q 80.8 101.7 84.2 99.3
L 86.75 97.25 86.8 97.2
Q 87.85 96.35 89 95 89.9 94.05 90.65 92.9 93.65 88.35 92.05 78.9
L 91.65 65.45
M 89.8 56.7
Q 89.15 55.35 88.65 54.6 87.95 53.55 87.6 53.2
L 87.55 53.05
Q 79.1 42.3 64.85 42.5
L 61.5 42.6
Q 58.6 43.1 56.7 43.6 42.9 47.35 37.75 59.95
L 37.05 61.75
Q 36.55 63.6 36.4 65.05 40.65 60.5 51.45 57.7
L 52.8 57.35
Q 60.05 55.5 63.35 57.75 66.65 54.65 72.55 54.1 83.4 53.7 89.8 56.7 Z"/>
</g>

<g id="Layer0_1_MEMBER_0_MEMBER_4_MEMBER_0_MEMBER_0_MEMBER_1_FILL">
<path fill="#F6B38B" stroke="none" d="
M 91.4 63.55
Q 91.4 62.45 91.25 61.4 90.8 58.85 89.8 56.7 83.4 53.7 72.55 54.1 66.65 54.65 63.35 57.75 60.05 55.5 52.8 57.35
L 51.45 57.7
Q 40.65 60.5 36.4 65.05 36.2 66.55 36.4 69
L 38.75 78.15
Q 40.55 88.5 42.35 93.15
L 43.15 94.6
Q 45.35 98.2 49.95 100.3 57.1 103.2 64.05 103.85
L 66.55 104.05 66.75 104
Q 70.3 103.95 73.4 102.95
L 73.75 102.85
Q 76.15 102 79.05 100.5 83 98.25 86.55 95.25 91.15 91.35 91.9 86.4
L 91.9 86.3 91.95 85.8
Q 92.25 81.7 91.55 73.4
L 91.4 63.55 Z"/>
</g>

<g id="Layer0_1_MEMBER_0_MEMBER_5_MEMBER_0_MEMBER_0_MEMBER_0_FILL">
<path fill="#E1905F" stroke="none" d="
M 67.4 80.6
Q 65.85 78.95 64.55 81.15 64.4 81.4 64.75 81.5
L 65 81.45
Q 65.9 81.45 67.05 81.2
L 67.4 81.1
Q 67.7 80.95 67.4 80.6 Z"/>
</g>

<g id="Layer0_1_MEMBER_0_MEMBER_6_MEMBER_0_MEMBER_0_MEMBER_0_FILL">
<path fill="#FFFFFF" stroke="none" d="
M 89.6 68.75
Q 84.1 66.35 83.05 66.95 74.9 66.1 70.1 72.3 69.95 78.1 74.5 80.5
L 75.3 80.95
Q 76 81.35 76.8 81.6 77.9 81.95 79 81.95 81.05 82.05 82.9 81.25
L 82.95 81.25
Q 85.1 80.6 85.85 79.75 86.6 78.85 88.25 76.15 89.95 73.45 89.6 68.75 Z"/>
</g>

<g id="Layer0_1_MEMBER_0_MEMBER_7_MEMBER_0_MEMBER_0_MEMBER_0_FILL">
<path fill="#5D2715" stroke="none" d="
M 82.85 68.75
L 81.8 68.2
Q 80.8 67.8 79.45 67.7 76.85 67.7 74.95 69.7
L 74.75 70 74.7 70.05 74.05 71.1
Q 73.2 72.6 73.3 74.55 73.4 77.3 75.4 79.25 77.4 81.25 80.05 81.15 81.85 81.1 83.3 80 84 79.4 84.3 79 86.05 77.05 85.95 74.3 85.9 73.4 85.55 72.3 85.1 70.85 83.9 69.65 83.35 69 82.85 68.75 Z"/>
</g>

<g id="Layer0_1_MEMBER_0_MEMBER_8_MEMBER_0_MEMBER_0_MEMBER_0_FILL">
<path fill="#1C1414" stroke="none" d="
M 82.3 76.25
Q 83.35 74.8 83.3 72.9 83.25 70.9 82.05 69.6 80.8 68.3 79.2 68.35 77.6 68.35 76.55 69.8 75.45 71.25 75.5 73.15 75.65 75.2 76.8 76.4 78 77.75 79.6 77.7 81.15 77.7 82.3 76.25 Z"/>
</g>

<g id="Layer0_1_MEMBER_0_MEMBER_9_MEMBER_0_MEMBER_0_MEMBER_0_FILL">
<path fill="#FFFFFF" stroke="none" d="
M 74.5 73.3
Q 74.6 73.7 74.8 73.95 75.15 74.4 75.5 74.5
L 76 74.55 76.1 74.55
Q 76.75 74.55 77.2 74
L 77.4 73.85
Q 77.85 73.15 77.85 72.55 78 71.75 77.5 71.1
L 77.2 70.8
Q 77 70.65 76.55 70.55
L 76.3 70.5
Q 75.65 70.5 75.05 71.1 74.5 71.7 74.45 72.5 74.4 72.7 74.45 72.85 74.4 73 74.5 73.3 Z"/>
</g>

<g id="Layer0_1_MEMBER_0_MEMBER_10_MEMBER_0_MEMBER_0_MEMBER_0_FILL">
<path fill="#904723" stroke="none" d="
M 84.85 76.9
L 84.85 76.5
Q 84.95 76.35 84.85 76.15
L 84.55 75.5
Q 84.3 75.05 83.95 75
L 83.5 74.9 83.45 74.9
Q 82.85 74.9 82.35 75.45 82.2 75.45 82.2 75.6 81.8 76 81.65 76.8 81.65 77.6 82 78.1
L 82.35 78.45 82.85 78.75 83.1 78.7
Q 83.8 78.8 84.25 78.15 84.7 77.7 84.85 76.9 Z"/>
</g>

<g id="Layer0_1_MEMBER_0_MEMBER_11_MEMBER_0_MEMBER_0_MEMBER_0_FILL">
<path fill="#F6B38B" stroke="none" d="
M 89.4 64.5
Q 86.9 59.65 82.4 58.9 77.85 58.2 74 62 73.35 62.65 73.1 63 72.35 63.8 71.9 64.55
L 71.9 64.6
Q 71.3 65.45 70.75 66.65 70.4 67.25 70.15 68.05 69.5 69.85 69.1 71.95
L 68.9 73.95
Q 68.75 75.9 69 78
L 69.25 79.2
Q 69.55 80.4 70 81.65
L 70.6 82.95 70.6 83 71.35 84.25
Q 73.7 87.95 77.6 88.55 82.05 89.3 85.95 85.45
L 86.95 84.4
Q 87.7 83.5 88.45 82.35
L 88.75 81.85
Q 90.35 78.8 90.85 75.5 91.75 70.2 89.95 65.75
L 89.4 64.5
M 83.65 66.2
Q 86.85 66.45 89.85 67.8 90.2 69.2 90.2 70.95 90.1 73.25 89.25 75.6
L 89.2 75.75
Q 87.2 80.2 83.2 81.5
L 83.15 81.5
Q 81.4 82.05 79.3 81.95
L 79 81.95
Q 77.9 81.95 76.8 81.6 76 81.35 75.3 80.95
L 75.1 80.85 73.7 79.95 72.5 78.85 72.25 78.55
Q 71.35 77.55 70.9 76.2
L 70.7 75.45 70.7 75.4 70.55 74.75 70.55 74.7 70.6 74.7 70.55 74.65 70.6 74.65 70.65 74.05
Q 70.8 73.15 71.25 72.2
L 71.45 71.85
Q 73.1 68.65 76.5 67.2 77.05 66.95 78.35 66.55
L 79.1 66.35
Q 81.4 66.05 83.65 66.2 Z"/>
</g>

<g id="Layer0_1_MEMBER_0_MEMBER_11_MEMBER_0_MEMBER_0_MEMBER_1_FILL">
<path fill="#341709" stroke="none" d="
M 90.2 70.95
Q 90.2 69.2 89.85 67.8 86.85 66.45 83.65 66.2 81.4 66.05 79.1 66.35
L 78.35 66.55
Q 77.05 66.95 76.5 67.2 73.1 68.65 71.45 71.85
L 71.25 72.2
Q 70.8 73.15 70.65 74.05
L 70.6 74.65
Q 71.4 72.4 72.95 70.85 74.9 68.9 78.25 67.95 78.5 67.85 80.2 67.5 83.2 67.05 85.9 67.95 87.65 68.55 89.05 69.45
L 89.1 69.95
Q 89.25 73.05 88.2 75.65 87.5 77.4 86.05 79.05
L 85.7 79.45 84.95 80.1 83.55 80.95 83.25 81.1 83.15 81.2 83.1 81.2 82.6 81.4 82.55 81.4 82.4 81.45 82.35 81.5
Q 80.95 81.95 79.5 81.95 81.4837890625 82.0236328125 83.15 81.5
L 83.2 81.5
Q 87.2 80.2 89.2 75.75
L 89.25 75.6
Q 90.1 73.25 90.2 70.95 Z"/>
</g>

<g id="Layer0_1_MEMBER_0_MEMBER_11_MEMBER_0_MEMBER_0_MEMBER_2_FILL">
<path fill="#060101" fill-opacity="0.2" stroke="none" d="
M 89.1 69.95
L 89.05 69.45
Q 87.65 68.55 85.9 67.95 83.2 67.05 80.2 67.5 78.5 67.85 78.25 67.95 74.9 68.9 72.95 70.85 71.4 72.4 70.6 74.65 72.4 70.8 76.5 69.15 81.55 67.2 85.85 68.9 86.95 69.3 87.95 70.15 88.75 73.15 87.5 76.05 84.85 81.3 79.5 81.95 80.95 81.95 82.35 81.5
L 82.4 81.45 82.55 81.4 82.6 81.4 83.1 81.2 83.15 81.2 83.25 81.1 83.55 80.95 84.95 80.1 85 80.05 85.7 79.45 86.05 79.05
Q 87.5 77.4 88.2 75.65 89.25 73.05 89.1 69.95 Z"/>
</g>

<g id="Layer0_1_MEMBER_0_MEMBER_12_MEMBER_0_MEMBER_0_MEMBER_0_FILL">
<path fill="#FFFFFF" stroke="none" d="
M 43.3 82.4
Q 45.8 84.65 46.6 85.15 47.65 85.8 49.8 85.8 51.75 86.1 53.75 85.4 54.75 85.15 55.8 84.5
L 57.05 83.5 57.7 82.8
Q 61.45 79.25 59.75 73.75 53.4 69.1 45.8 72.1 44.55 71.8 39.95 75.65 40.9 80.15 43.3 82.4 Z"/>
</g>

<g id="Layer0_1_MEMBER_0_MEMBER_13_MEMBER_0_MEMBER_0_MEMBER_0_FILL">
<path fill="#5D2715" stroke="none" d="
M 54.65 72.75
L 54.35 72.55
Q 52.1 71.15 49.5 71.85 48.3 72.2 47.35 73 46.95 73.3 46.5 73.8 46.15 74.15 45.7 74.95 44.9 76.45 44.85 77.95 44.85 79.1 45.05 79.95 45.65 82.65 47.9 84.05 48.5 84.45 49.1 84.7 50.65 85.35 52.55 84.95 55.2 84.25 56.55 81.85 57.9 79.4 57.25 76.8 56.8 74.95 55.6 73.65 54.9 72.95 54.7 72.8
L 54.65 72.75 Z"/>
</g>

<g id="Layer0_1_MEMBER_0_MEMBER_14_MEMBER_0_MEMBER_0_MEMBER_0_FILL">
<path fill="#1C1414" stroke="none" d="
M 54.75 76.05
Q 54.35 74.2 52.85 73.05 51.45 72 49.85 72.4 48.3 72.75 47.5 74.4 46.75 76 47.2 77.9 47.65 79.85 49.05 80.85 50.55 81.95 52.05 81.5 53.65 81.1 54.4 79.5 55.2 77.85 54.75 76.05 Z"/>
</g>

<g id="Layer0_1_MEMBER_0_MEMBER_15_MEMBER_0_MEMBER_0_MEMBER_0_FILL">
<path fill="#FFFFFF" stroke="none" d="
M 53.25 73.7
L 53.05 73.8
Q 52.75 73.9 52.5 74.25 52.4 74.3 52.3 74.6 52 75.3 52.3 76.05 52.65 76.8 53.15 77.2
L 53.35 77.3
Q 54 77.7 54.55 77.55
L 54.7 77.5 55.15 77.3
Q 55.5 77.05 55.65 76.6
L 55.75 75.9
Q 55.8 75.75 55.7 75.45
L 55.6 75.1
Q 55.3 74.35 54.6 73.95 53.9 73.5 53.25 73.7 Z"/>
</g>

<g id="Layer0_1_MEMBER_0_MEMBER_16_MEMBER_0_MEMBER_0_MEMBER_0_FILL">
<path fill="#904723" stroke="none" d="
M 47.55 79.85
L 47.15 80.05
Q 46.8 80.25 46.7 80.75
L 46.6 81.4 46.65 81.75 46.8 82.15
Q 47.1 82.85 47.7 83.2 48.25 83.6 48.95 83.45
L 49.2 83.4 49.6 82.95 49.8 82.65 49.85 82.55
Q 50.1 81.9 49.85 81.2 49.45 80.45 49 80.2 48.95 80.1 48.8 80.1 48.2 79.7 47.6 79.85
L 47.55 79.85 Z"/>
</g>

<g id="Layer0_1_MEMBER_0_MEMBER_17_MEMBER_0_MEMBER_0_MEMBER_0_FILL">
<path fill="#F6B38B" stroke="none" d="
M 39.05 71.5
L 38.85 72.85
Q 38.3 77.5 40.6 82.45 42.1 85.7 44.35 87.95
L 44.8 88.4
Q 45.75 89.3 46.8 89.95 47.45 90.45 48.05 90.7 52.8 93.35 56.95 91.4 60.45 89.75 61.8 85.55
L 62.35 82.7
Q 62.5 81.55 62.4 80.15
L 62.3 78.95
Q 62.1 77.15 61.35 75
L 60.6 73.15
Q 59.8 71.35 58.55 69.65
L 57.55 68.45
Q 56.8 67.55 55.9 66.8 55.1 66.05 54.35 65.6
L 53.15 64.9
Q 48.4 62.25 44.25 64.2 40.1 66.15 39.05 71.5
M 40 77.85
Q 39.5 76.2 39.5 74.75 41.95 72.7 45.05 71.55 47.4 70.7 49.45 70.45
L 50.2 70.45
Q 51.55 70.45 52.2 70.55 55.95 71.1 58.3 73.65
L 58.6 73.95
Q 59.25 74.75 59.65 75.55
L 59.95 76.2 60 76.9
Q 60.1 77.3 60 77.7 59.9 79.1 59.35 80.3
L 59.2 80.65 59.15 80.7
Q 58.9 81.3 58.35 82.1
L 57.05 83.5 55.8 84.5
Q 54.75 85.15 53.75 85.4
L 53.55 85.5 53.5 85.5
Q 51.45 86.2 49.65 86.1
L 49.6 86.1
Q 45.5 86.05 42.25 82.25
L 42.2 82.1
Q 40.75 80.2 40 77.85 Z"/>
</g>

<g id="Layer0_1_MEMBER_0_MEMBER_17_MEMBER_0_MEMBER_0_MEMBER_1_FILL">
<path fill="#060101" fill-opacity="0.2" stroke="none" d="
M 56.55 73.1
Q 54.1 71.75 50.7 71.75 50.1 71.75 48.7 71.85 45.75 72.3 43.35 73.8 41.75 74.9 40.7 76.15
L 40.8 76.65
Q 41.55 79.75 43.25 81.85 44.45 83.4 46.2 84.55
L 46.65 84.85 47.5 85.25 47.55 85.25 49.15 85.75 49.45 85.8 49.6 85.8 49.65 85.85 50.2 85.9 50.45 85.9
Q 51.95 86 53.3 85.55 47.9 86.4 44 82.1 41.95 79.6 41.95 76.5 42.55 75.65 43.65 74.7 47.4 71.95 52.7 72.45 57.2 72.9 59.9 76.15 58.5 74.15 56.55 73.1 Z"/>
</g>

<g id="Layer0_1_MEMBER_0_MEMBER_17_MEMBER_0_MEMBER_0_MEMBER_2_FILL">
<path fill="#341709" stroke="none" d="
M 39.5 74.75
Q 39.5 76.2 40 77.85 40.75 80.2 42.2 82.1
L 42.25 82.25
Q 45.5 86.05 49.6 86.1
L 49.65 86.1
Q 51.383984375 86.1962890625 53.35 85.55
L 53.3 85.55
Q 51.95 86 50.45 85.9
L 50.2 85.9 49.65 85.85 49.6 85.8 49.45 85.8 49.15 85.75 47.55 85.25 47.5 85.25 46.65 84.85 46.2 84.55
Q 44.45 83.4 43.25 81.85 41.55 79.75 40.8 76.65
L 40.7 76.15
Q 41.75 74.9 43.35 73.8 45.75 72.3 48.7 71.85 50.1 71.75 50.7 71.75 54.1 71.75 56.55 73.1 58.5 74.15 59.9 76.15
L 59.95 76.2 59.65 75.55
Q 59.25 74.75 58.6 73.95
L 58.3 73.65
Q 55.95 71.1 52.2 70.55 51.55 70.45 50.2 70.45
L 49.45 70.45
Q 47.4 70.7 45.05 71.55 41.95 72.7 39.5 74.75 Z"/>
</g>

<g id="Layer0_1_MEMBER_0_MEMBER_18_MEMBER_0_MEMBER_0_MEMBER_0_FILL">
<path fill="#E56D54" stroke="none" d="
M 84.55 82.25
Q 83.8 82.8 83.65 83.4
L 83.65 83.65
Q 83.65 84.55 84.55 85.05 85.15 85.45 85.95 85.5 86.2 85.55 86.75 85.55 87.95 85.5 88.9 84.85 89.65 84.3 89.75 83.6
L 89.8 83.35
Q 89.8 82.55 88.9 82 88.3 81.65 87.55 81.55
L 86.7 81.55
Q 85.5 81.55 84.55 82.25 Z"/>
</g>

<g id="Layer0_1_MEMBER_0_MEMBER_19_MEMBER_0_MEMBER_0_MEMBER_0_FILL">
<path fill="#E56D54" stroke="none" d="
M 47.6 87.1
Q 47.3 87.05 46.75 87.05 45.55 87.1 44.6 87.75 43.85 88.3 43.75 88.9
L 43.7 89.2
Q 43.7 90.1 44.6 90.6 45.2 90.9 46 91.05
L 46.8 91.05
Q 48 91 48.95 90.35 49.75 89.8 49.8 89.15
L 49.85 88.9
Q 49.85 88.1 48.95 87.5 48.3 87.1 47.6 87.1 Z"/>
</g>

<g id="Layer0_1_MEMBER_0_MEMBER_20_MEMBER_0_MEMBER_0_MEMBER_0_FILL">
<path fill="#E1905F" stroke="none" d="
M 70.1 99.7
Q 70.1 99.45 69.85 99.2 69.5 98.85 68.95 99
L 68.3 99.15 67.95 99.3
Q 67.7 99.35 67.5 99.55 67.2 99.7 67.2 99.9
L 67.2 99.95
Q 67.05 100.5 67.55 100.65 68.1 100.9 68.75 100.8 69.3 100.75 69.7 100.5 70.15 100.2 70.1 99.7 Z"/>
</g>

<g id="Layer0_1_MEMBER_0_MEMBER_21_MEMBER_0_MEMBER_0_MEMBER_0_FILL">
<path fill="#6E4B37" stroke="none" d="
M 39.8 70.2
Q 38.15 67.5 37.35 65.4
L 37.1 64.15
Q 34.8 66.15 33.9 68.65 35.15 73.45 36.95 77.15
L 39.6 83 39.7 83.35
Q 37.7 74.95 40.15 70.75
L 39.8 70.2 Z"/>
</g>

<g id="Layer0_1_MEMBER_0_MEMBER_21_MEMBER_0_MEMBER_0_MEMBER_1_FILL">
<path fill="#633E29" stroke="none" d="
M 37.1 64.15
Q 37.05 63.75 37.15 63.05 35.65 64.4 34.45 65.8
L 33.5 66.95 33.9 68.65
Q 34.8 66.15 37.1 64.15 Z"/>
</g>

<g id="Layer0_1_MEMBER_0_MEMBER_22_MEMBER_0_MEMBER_0_MEMBER_0_FILL">
<path fill="#633E29" stroke="none" d="
M 91.75 55.8
Q 90.65 54.55 88.6 55.35
L 88.8 56.2
Q 91.85 57.7 93.25 59.7
L 93.25 58.25
Q 92.75 57.1 91.75 55.8 Z"/>
</g>

<g id="Layer0_1_MEMBER_0_MEMBER_22_MEMBER_0_MEMBER_0_MEMBER_1_FILL">
<path fill="#6E4B37" stroke="none" d="
M 93.25 59.7
Q 91.85 57.7 88.8 56.2
L 88.95 56.95
Q 89.05 57.35 89.05 58.25 89 60.15 88 63.55
L 87.85 64.15
Q 91.35 67.5 91.65 76.15
L 91.7 75.8
Q 91.85 74.65 92.65 69.45 93.4 65.4 93.3 60.4
L 93.25 59.7 Z"/>
</g>

<g id="Layer0_1_MEMBER_0_MEMBER_23_MEMBER_0_MEMBER_0_MEMBER_0_FILL">
<path fill="#73301D" stroke="none" d="
M 45.25 48.75
Q 46.2 49.45 47.4 49.4 47.7 46.1 50 44.1 49.95 45.3 50.3 46.1 51.5 43.3 53.4 40.75
L 47.7 41.55
Q 45.45 44.55 43.85 47.85 43.4 47.3 43 46.55 42.65 45.7 42.5 44.9 39.55 48.15 37.5 53.35 37.05 54.4 36.35 56.7 34.75 56.7 34.15 55.95 33.3 58.65 33.3 63
L 33.5 66.95 34 65.85
Q 35 64.05 36.15 62.6 37.2 61.4 38.45 60.3 39.7 59.2 41.85 57.8 40.2 57.3 38.05 57.3 37.45 57.3 36.15 57.4
L 39.45 55.55
Q 41.3 53.8 43.8 52.3
L 46.05 51.05
Q 45.2 50.25 45.25 48.75 Z"/>
</g>

<g id="Layer0_1_MEMBER_0_MEMBER_23_MEMBER_0_MEMBER_0_MEMBER_1_FILL">
<path fill="#AD4823" stroke="none" d="
M 43.2 42.25
L 42.5 42.85
Q 38.95 46 37.2 51.3 36.45 53.5 36 56.1 34.4 55.65 33.8 54.4 32.75 58.15 33.05 63.05
L 33.5 66.95 33.3 63
Q 33.3 58.65 34.15 55.95 34.75 56.7 36.35 56.7 37.05 54.4 37.5 53.35 39.55 48.15 42.5 44.9 42.65 45.7 43 46.55 43.4 47.3 43.85 47.85 45.45 44.55 47.7 41.55
L 46.2 41.75
Q 44.8 43.7 43.75 46.05
L 43.2 42.25 Z"/>
</g>

<g id="Layer0_1_MEMBER_0_MEMBER_23_MEMBER_0_MEMBER_0_MEMBER_2_FILL">
<path fill="#4E2111" stroke="none" d="
M 81.05 53.2
Q 84.65 53.65 87.6 55 90.35 56.15 93.25 58.3 91.95 54.45 85.1 51.35 85.9 49.65 87.8 48.75 84.6 47.8 80.4 48.4 78.45 48.6 75.85 49.25 76.45 47 78.1 45.5 72.65 46.2 67 49 63.65 46.3 60.25 46.6 59.4 46.65 58.3 47 59.85 47.6 60.45 48.35 61.05 48.95 60.9 49.7
L 60.65 49.55
Q 54.85 46.8 49.7 47.55 51.8 49 52.75 50.8 47.95 51.85 43.95 53.45 41.25 54.65 39.45 55.55
L 36.15 57.4
Q 37.45 57.3 38.05 57.3 40.2 57.3 41.85 57.8 39.7 59.2 38.45 60.3 37.2 61.4 36.15 62.6 35 64.05 34 65.85
L 33.5 66.95 34.45 65.8
Q 35.65 64.4 37.15 63.05
L 38.65 61.8
Q 40.9 60 43.45 58.8
L 44.6 58.25
Q 45.9 57.65 47.7 57.15
L 48.8 56.8
Q 55.05 55.35 59.65 55.35 60.6 55.35 61.5 55.65 62.3 55.9 62.95 56.4 64 55.05 65.8 54.45 70.4 53.2 76.6 53 79.05 52.9 81.05 53.2 Z"/>
</g>

<g id="Layer0_1_MEMBER_0_MEMBER_23_MEMBER_0_MEMBER_0_MEMBER_3_FILL">
<path fill="#652817" stroke="none" d="
M 90.05 46.75
L 89.1 49.25
Q 83.85 40.95 80.4 39.35 81.05 41.25 80.9 42.9
L 79.8 41.75 79.7 41.6
Q 76.8 39 75.3 37.75
L 53.4 40.75
Q 51.5 43.3 50.3 46.1 49.95 45.3 50 44.1 47.7 46.1 47.4 49.4 46.2 49.45 45.25 48.75 45.2 50.25 46.05 51.05
L 43.8 52.3
Q 41.3 53.8 39.45 55.55 41.25 54.65 43.95 53.45 47.95 51.85 52.75 50.8 51.8 49 49.7 47.55 54.85 46.8 60.65 49.55
L 60.9 49.7
Q 61.05 48.95 60.45 48.35 59.85 47.6 58.3 47 59.4 46.65 60.25 46.6 63.65 46.3 67 49 72.65 46.2 78.1 45.5 76.45 47 75.85 49.25 78.45 48.6 80.4 48.4 84.6 47.8 87.8 48.75 85.9 49.65 85.1 51.35 91.95 54.45 93.25 58.3
L 93.25 57.85
Q 92.65 50.9 90.05 46.75 Z"/>
</g>

<g id="Layer0_1_MEMBER_0_MEMBER_23_MEMBER_0_MEMBER_0_MEMBER_4_FILL">
<path fill="#2A1308" stroke="none" d="
M 89.1 49.25
L 90.05 46.75
Q 92.65 50.9 93.25 57.85 92.95 50.3 89.6 44.35 89.35 46.75 88.6 47 84.9 40.15 78.75 36.6
L 78.55 36.5 78.85 37.1
Q 79.3 38.4 79.15 39.45
L 79.1 39.75
Q 77.3 38.25 76.4 37.6
L 75.3 37.75
Q 76.8 39 79.7 41.6
L 79.8 41.75 80.9 42.9
Q 81.05 41.25 80.4 39.35 83.85 40.95 89.1 49.25 Z"/>
</g>

<g id="Layer0_1_MEMBER_0_MEMBER_24_MEMBER_0_MEMBER_0_MEMBER_0_FILL">
<path fill="#EA6278" stroke="none" d="
M 62.2 97.15
L 62.3 97.15
Q 66.1 97.75 70.9 96.6
L 72.15 96.3
Q 73.9 95.75 75.35 94.7
L 75.8 94.4
Q 77.05 93.35 77.7 92.4 73.85 91.55 69.05 92.75
L 68.85 92.85
Q 63.65 94.1 62.2 97.15 Z"/>
</g>

<g id="Layer0_1_MEMBER_0_MEMBER_24_MEMBER_0_MEMBER_0_MEMBER_1_FILL">
<path fill="#AE1D3C" stroke="none" d="
M 55.5 92.3
Q 55.95 94.65 58.55 96 59.8 96.65 62.2 97.15 63.65 94.1 68.85 92.85
L 69.05 92.75
Q 73.85 91.55 77.7 92.4 78.55 91.05 78.85 89.7
L 78.95 89.35
Q 79.35 85.8 77.15 84.55 76.1 84.15 75.15 84.1
L 73.75 84.15
Q 73.75 85.55 73.25 86.85
L 73.2 86.9
Q 70.9 88.7 67.35 89.75
L 67.3 89.75
Q 64.15 90.6 61.45 90.35 60.35 89.55 59.55 88.4 58.3 88.55 57.55 88.9 55.65 89.8 55.5 92.2
L 55.5 92.3 Z"/>
</g>

<g id="Layer0_1_MEMBER_0_MEMBER_24_MEMBER_0_MEMBER_0_MEMBER_2_FILL">
<path fill="#FFF6ED" stroke="none" d="
M 60.55 88.35
L 60.45 88.35
Q 59.85 88.35 59.55 88.4 60.35 89.55 61.45 90.35 64.15 90.6 67.3 89.75
L 67.35 89.75
Q 70.9 88.7 73.2 86.9
L 73.25 86.85
Q 73.75 85.55 73.75 84.15 73 84.2 72.2 84.55 71.8 84.65 70.75 85.3
L 70.7 85.35
Q 66.05 87.9 60.55 88.35 Z"/>
</g>

<g id="Layer0_1_MEMBER_0_MEMBER_25_MEMBER_0_MEMBER_0_MEMBER_0_FILL">
<path fill="#4E2111" stroke="none" d="
M 82.75 63.25
Q 84.1 62.95 83.8 62.05
L 83.8 62
Q 83 59.95 81.6 58.8
L 81.55 58.8
Q 80.55 58.1 79.15 58.4
L 78.95 58.4 78.95 58.45 78.8 58.45
Q 75 59.45 71.85 61.7 71.65 61.9 71.5 61.95 70.55 62.75 70.65 64
L 70.65 64.05
Q 70.8 64.75 71.1 65.4
L 71.15 65.45
Q 71.4 65.9 72.05 65.75
L 72.7 65.45 72.75 65.45
Q 77.7 63.45 82.75 63.25 Z"/>
</g>

<g id="Layer0_1_MEMBER_0_MEMBER_26_MEMBER_0_MEMBER_0_MEMBER_0_FILL">
<path fill="#4E2111" stroke="none" d="
M 43.75 67.6
Q 43.75 68.55 45.1 68.5 50 67.3 55.3 67.85
L 55.35 67.85 56.1 67.95
Q 56.75 67.95 56.85 67.4
L 56.9 67.35 56.95 65.9
Q 56.7 64.65 55.55 64.15
L 55.15 64
Q 51.5 62.65 47.6 62.8
L 47.55 62.75 47.45 62.8 47.45 62.75 47.25 62.8
Q 45.75 62.95 45 63.85 43.95 65.3 43.75 67.55
L 43.75 67.6 Z"/>
</g>

<g id="Layer0_1_MEMBER_0_MEMBER_27_MEMBER_0_MEMBER_0_MEMBER_0_FILL">
<path fill="#4E4353" stroke="none" d="
M 36 43.45
L 35.1 44.25 36.8 57.3 36.8 57.35 36.95 58.7 38.2 57.55 38.35 57.5 36 43.45
M 38.1 41.85
L 38 41.95 37.4 42.35 40.05 56.15 40.65 55.8 39.65 50.9
Q 38.8 46.35 38.1 41.85 Z"/>
</g>

<g id="Layer0_1_MEMBER_0_MEMBER_27_MEMBER_0_MEMBER_0_MEMBER_1_FILL">
<path fill="#413646" stroke="none" d="
M 36.8 57.35
L 36.8 57.3 35.1 44.25
Q 31.85 47.2 30.7 50.35 30.4 51.25 30.25 51.95 29.95 53.4 30.2 55
L 30.2 55.1
Q 30.75 60.35 32.2 65.95 32.65 67.1 33.6 67.25
L 33.3 65.4
Q 33.15 62.5 36.35 59.3
L 36.95 58.7 36.8 57.35
M 37.4 42.35
L 36 43.45 38.35 57.5 38.35 57.45 40 56.25 40.05 56.15 37.4 42.35
M 79.6 35.15
L 78.5 34.85 80.5 49.1 81.6 49.45 79.6 35.15
M 76.95 34.5
L 75.65 34.25 77.6 48.35 78.9 48.7 76.95 34.5
M 59.25 34.05
Q 58.35 34.15 57.45 34.35 45.9 36.4 38.1 41.85 38.8 46.35 39.65 50.9
L 40.65 55.8
Q 46.35 52.1 52.4 50.35
L 60.6 48.55 60.75 48.55 61.75 48.4 61.9 48.4 63.05 48.25
Q 70.5 47.5 76.6 48.15
L 74.65 34.05
Q 68.45 33.1 61.05 33.85
L 59.25 34.05
M 81.95 35.9
L 81.85 35.85 80.4 35.4 82.35 49.65 83.95 50.2 81.95 35.9 Z"/>
</g>

<g id="Layer0_1_MEMBER_0_MEMBER_27_MEMBER_0_MEMBER_0_MEMBER_2_FILL">
<path fill="#2E2335" stroke="none" d="
M 78.5 34.85
L 76.95 34.5 78.9 48.7 80.5 49.1 78.5 34.85
M 75.65 34.25
L 74.65 34.05 76.6 48.15 76.8 48.15 77.6 48.35 75.65 34.25
M 81.6 49.45
L 82.35 49.65 80.4 35.4 79.6 35.15 81.6 49.45
M 82.35 36.05
L 81.95 35.9 83.95 50.2
Q 91.85 53.15 92.75 57.2
L 92.95 59.05
Q 94.05 58.65 93.95 57.4 93.9 52.2 92.95 46.4
L 92.95 46.35
Q 92.75 44.85 92.05 43.4
L 91.2 42
Q 88.65 38.4 82.35 36.05 Z"/>
</g>

<g id="Layer0_2_FILL">
<path fill="#0099E2" stroke="none" d="
M 344.55 37.05
L 333.85 37.05 333.85 84.55 344.55 84.55 344.55 37.45 344.55 37.05 Z"/>

<path fill="#C7E8FA" stroke="none" d="
M 429.05 29.5
Q 425.75 21.8 417.9 18.7 410.05 15.6 402.3 18.9 397.35 21.1 394.3 25.2 387.2 19.85 377.9 19.85 366.4 19.85 358.3 28 354.45 31.85 352.45 36.45 351.55 36.35 350.6 36.35 347.35 36.35 344.55 37.45
L 344.55 84.55 333.85 84.55 333.85 88.05 358.65 88.05
Q 359.9 89.4 361.45 90.65 368.6 96.3 378.7 96.3 388.75 96.3 395.85 90.65 400.7 86.85 402.25 82 406.25 84 411.1 84 419.3 84 425.1 78.2 430.9 72.4 430.9 64.2 430.9 56.6 425.85 51 428 48.45 429.35 45.1 432.45 37.25 429.05 29.5 Z"/>
</g>

<g id="Layer0_2_MEMBER_0_FILL">
<path fill="#FFC100" stroke="none" d="
M 400.8 55.85
Q 399.65 55.4 398.55 55.9 397.4 56.4 396.95 57.55
L 394.6 63.45
Q 394.15 64.65 394.65 65.75 395.1 66.9 396.25 67.35 397.45 67.8 398.6 67.35 399.7 66.85 400.15 65.65
L 402.5 59.75
Q 402.95 58.6 402.5 57.5 402 56.3 400.8 55.85
M 376.55 47.7
Q 377.05 48.85 378.2 49.3 379.35 49.75 380.5 49.25
L 386.3 46.75
Q 387.45 46.2 387.9 45.05 388.35 43.85 387.85 42.8 387.35 41.65 386.2 41.15 385.05 40.7 383.9 41.25
L 378.1 43.75
Q 376.95 44.25 376.5 45.4 376.05 46.6 376.55 47.7
M 387.85 22.8
Q 387.4 21.65 386.2 21.15
L 380.3 18.85
Q 379.15 18.4 378 18.9 376.85 19.35 376.4 20.55 375.9 21.7 376.45 22.85 376.95 24 378.1 24.45
L 384 26.75
Q 385.2 27.25 386.3 26.75 387.4 26.2 387.9 25.05 388.35 23.85 387.85 22.8
M 396.9 10.4
Q 397.35 11.55 398.5 12 399.65 12.45 400.85 12 401.95 11.5 402.45 10.3 402.9 9.15 402.4 8.05
L 399.85 2.25
Q 399.35 1.05 398.2 0.6 397.05 0.15 395.9 0.65 394.75 1.1 394.3 2.3 393.8 3.45 394.35 4.6
L 396.9 10.4
M 426.25 65.2
Q 426.7 64.05 426.2 62.9
L 423.7 57.15
Q 423.2 56 422.05 55.55 420.9 55.1 419.75 55.55 418.6 56.05 418.15 57.2 417.65 58.4 418.2 59.5
L 420.7 65.3
Q 421.2 66.4 422.35 66.85 423.5 67.35 424.65 66.85 425.8 66.35 426.25 65.2
M 432.1 44.85
Q 432.6 45.95 433.8 46.4
L 439.7 48.75
Q 440.85 49.2 442 48.75 443.05 48.2 443.55 47.05 444 45.85 443.55 44.8 443.05 43.6 441.9 43.15
L 436 40.8
Q 434.8 40.35 433.65 40.9 432.55 41.3 432.1 42.5 431.6 43.65 432.1 44.85
M 424.45 1.85
Q 424 0.65 422.8 0.2 421.65 -0.25 420.5 0.25 419.4 0.7 418.95 1.9
L 416.6 7.8
Q 416.15 8.95 416.6 10.1 417.1 11.25 418.25 11.7 419.45 12.15 420.55 11.7 421.7 11.15 422.15 10
L 424.5 4.1
Q 424.95 2.9 424.45 1.85
M 438.85 17.4
L 433.05 19.9
Q 431.85 20.35 431.4 21.55 430.95 22.65 431.45 23.85 431.95 24.95 433.1 25.4 434.2 25.85 435.35 25.45
L 441.2 22.95
Q 442.35 22.4 442.8 21.3 443.25 20.1 442.8 19 442.3 17.85 441.2 17.4 440 16.95 438.85 17.4 Z"/>
</g>

<g id="Layer0_2_MEMBER_0_MEMBER_0_FILL">
<path fill="#FFE641" stroke="none" d="
M 511.95 276.5
Q 502.2 276.5 495.3 283.35 488.45 290.25 488.45 300 488.45 309.75 495.3 316.6 502.2 323.5 511.95 323.5 521.7 323.5 528.55 316.6 535.45 309.75 535.45 300 535.45 290.25 528.55 283.35 521.7 276.5 511.95 276.5 Z"/>
</g>

<g id="Layer0_2_MEMBER_1_MEMBER_0_FILL">
<path fill="#0099E2" stroke="none" d="
M 432.65 265.15
Q 425.05 272.75 425.05 283.5 425.05 294.25 432.65 301.85 440.25 309.45 451 309.45 461.75 309.45 469.35 301.85 476.95 294.25 476.95 283.5 476.95 272.75 469.35 265.15 461.75 257.55 451 257.55 440.25 257.55 432.65 265.15 Z"/>
</g>

<g id="Layer0_2_MEMBER_1_MEMBER_1_FILL">
<path fill="#0099E2" stroke="none" d="
M 231.95 39.85
Q 224.3 32.2 213.45 32.2 205.632421875 32.2 199.45 36.15
L 199.45 80.65
Q 201.4423828125 81.9369140625 203.6 82.8
L 223.35 82.8
Q 228.05 80.9 231.95 76.95 239.65 69.3 239.65 58.45 239.65 47.6 231.95 39.85 Z"/>
</g>

<g id="Layer0_2_MEMBER_1_MEMBER_2_FILL">
<path fill="#0099E2" stroke="none" d="
M 478.95 285.5
Q 471.3 285.5 465.85 290.9 460.45 296.35 460.45 304 460.45 311.65 465.85 317.05 471.3 322.5 478.95 322.5 486.6 322.5 492 317.05 497.45 311.65 497.45 304 497.45 296.35 492 290.9 486.6 285.5 478.95 285.5 Z"/>
</g>

<g id="Layer0_2_MEMBER_1_MEMBER_3_FILL">
<path fill="#0099E2" stroke="none" d="
M 470 316
Q 470 308.55 464.7 303.25 459.45 298 452 298 444.55 298 439.25 303.25 434 308.55 434 316 434 323.45 439.25 328.7 444.55 334 452 334 459.45 334 464.7 328.7 470 323.45 470 316 Z"/>
</g>

<g id="Layer0_2_MEMBER_1_MEMBER_4_FILL">
<path fill="#0099E2" stroke="none" d="
M 440.3 286.15
Q 433.15 279 423 279 412.85 279 405.65 286.15 398.5 293.35 398.5 303.5 398.5 313.65 405.65 320.8 412.85 328 423 328 433.15 328 440.3 320.8 447.5 313.65 447.5 303.5 447.5 293.35 440.3 286.15 Z"/>
</g>

<path id="Layer0_1_MEMBER_0_MEMBER_0_MEMBER_1_MEMBER_0_1_STROKES" stroke="#060101" stroke-width="1" stroke-linejoin="round" stroke-linecap="round" fill="none" d="
M 17 65.8
L 17.2 66.1 18.05 65.6
Q 23.25 62 23.75 55.25
L 24.25 55.8
Q 23.45 62.5 18.15 66.2
L 17.35 66.65
M 16 68.1
Q 15.4 68.95 14.65 69.25
L 14.45 69.4 13.95 69.55
Q 13.3 69.75 12.25 69.75
L 11.75 69.75 11.4 69.7
Q 9.05 69.15 7.45 67.7
L 7.35 67.6 6.55 66.6 6 65.6 6 65.55 5.85 65.1 5.85 64.95 6 64
Q 6.2 62.8 6.75 61.65
L 7.65 60.3
Q 8.7 59.05 9.7 58.9
L 9.9 58.9 10.05 59 10.15 59.3
Q 10.45 60.4 10.65 60.85 10.85 61.4 11.2 62.05 11.6 62.7 12 63.1
L 12.1 63.2
Q 12.8 63.85 13.4 64.15
L 14.45 64.6 15 64.7
Q 15.65 64.9 16.1 65.35"/>

<path id="Layer0_1_MEMBER_0_MEMBER_1_MEMBER_1_MEMBER_0_1_STROKES" stroke="#060101" stroke-width="1" stroke-linejoin="round" stroke-linecap="round" fill="none" d="
M 106 40.1
L 88.65 60.5 37.95 69 16.25 52.75 16.25 52.7 17.4 50.45 56.75 11.6 56.75 11.55 103.6 37.45 105.8 40 106 40.1 Z"/>

<path id="Layer0_1_MEMBER_0_MEMBER_2_MEMBER_1_MEMBER_0_1_STROKES" stroke="#D5684B" stroke-width="1" stroke-linejoin="round" stroke-linecap="round" fill="none" d="
M 95.05 72.65
Q 93.7 72.5 92.55 73.1
L 92.5 73.15
Q 90.65 74.25 89.75 76.1 89.4 77 89.15 77.9 88.95 79.1 89 80.3
L 88.8 85.1
Q 89.15 86.55 90.8 87.5 91.75 88.05 92.65 87.9 93.45 87.8 94.15 87.4 95.45 86.6 96.35 85.25
L 96.4 85.15
Q 97.45 83.7 98.3 81.5
L 98.75 80.05
Q 99.65 75.55 97.35 73.6
L 97.3 73.55
Q 96.35 72.8 95.05 72.65 Z"/>

<path id="Layer0_1_MEMBER_0_MEMBER_3_MEMBER_1_MEMBER_0_1_STROKES" stroke="#D5684B" stroke-width="1" stroke-linejoin="round" stroke-linecap="round" fill="none" d="
M 38.3 80.6
Q 40.35 81.1 41.75 82.75 42.4 83.45 42.85 84.3 43.35 85.35 43.65 86.6
L 45.15 91.15
Q 45.15 92.75 43.85 94 43.2 94.75 42.2 94.9 41.5 95.05 40.6 94.8 39.15 94.4 37.9 93.35
L 37.8 93.25
Q 36.3 92 35.05 90.25
L 34.2 88.95
Q 32.1 84.9 33.8 82.4
L 33.8 82.35
Q 34.65 81.25 35.7 80.85 37 80.3 38.3 80.6 Z"/>

<path id="Layer0_1_MEMBER_0_MEMBER_4_MEMBER_1_MEMBER_0_1_STROKES" stroke="#D5684B" stroke-width="1" stroke-linejoin="round" stroke-linecap="round" fill="none" d="
M 73.4 104.7
L 74 104.5 74.1 104.45 76 103.7
Q 80.8 101.7 84.2 99.3
L 86.75 97.25 86.8 97.2
Q 87.85 96.35 89 95 89.9 94.05 90.65 92.9 93.65 88.35 92.05 78.9
L 91.65 65.45
Q 91.55 63.05 91.25 61.4 90.8 58.85 89.8 56.7 89.15 55.35 88.65 54.6 87.95 53.55 87.6 53.2
L 87.55 53.05
Q 79.1 42.3 64.85 42.5
L 61.5 42.6
Q 58.6 43.1 56.7 43.6 42.9 47.35 37.75 59.95
L 37.05 61.75
Q 36.55 63.6 36.4 65.05 36.2 66.55 36.4 69 36.6 70.75 37.1 73
L 39.05 80.1
Q 39.85 84.9 40.7 88.55
L 41.7 92.35
Q 42.85 95.85 44.4 98 45.55 99.45 46.65 100.25
L 47.3 100.75
Q 52.95 104.65 62.4 105.55
L 65.5 105.8 69.05 105.65 70.65 105.4 72.75 104.9 73.4 104.7 73.15 104.8 72.75 104.9
M 70.65 105.4
L 70.2 105.5 69.05 105.65"/>

<path id="Layer0_1_MEMBER_0_MEMBER_21_MEMBER_1_MEMBER_0_1_STROKES" stroke="#9E1F24" stroke-width="1" stroke-linejoin="round" stroke-linecap="round" fill="none" d="
M 39.7 83.35
L 39.6 83 36.95 77.15
Q 35.15 73.45 33.9 68.65
L 33.5 66.95"/>

<path id="Layer0_1_MEMBER_0_MEMBER_22_MEMBER_1_MEMBER_0_1_STROKES" stroke="#9E1F24" stroke-width="1" stroke-linejoin="round" stroke-linecap="round" fill="none" d="
M 93.25 58.25
L 93.3 60.4
Q 93.4 65.4 92.65 69.45 91.85 74.65 91.7 75.8
L 91.65 76.15"/>

<path id="Layer0_1_MEMBER_0_MEMBER_23_MEMBER_1_MEMBER_0_1_STROKES" stroke="#9E1F24" stroke-width="1" stroke-linejoin="round" stroke-linecap="round" fill="none" d="
M 93.25 57.85
Q 92.95 50.3 89.6 44.35 89.35 46.75 88.6 47 84.9 40.15 78.75 36.6
L 78.55 36.5 78.85 37.1
Q 79.3 38.4 79.15 39.45
L 79.1 39.75
Q 77.3 38.25 76.4 37.6
M 33.5 66.95
L 33.05 63.05
Q 32.75 58.15 33.8 54.4 34.4 55.65 36 56.1 36.45 53.5 37.2 51.3 38.95 46 42.5 42.85
L 43.2 42.25 43.75 46.05
Q 44.8 43.7 46.2 41.75"/>

<path id="Layer0_1_MEMBER_0_MEMBER_27_MEMBER_1_MEMBER_0_1_STROKES" stroke="#1A1918" stroke-width="1" stroke-linejoin="round" stroke-linecap="round" fill="none" d="
M 82.35 36.05
Q 88.65 38.4 91.2 42
L 92.05 43.4
Q 92.75 44.85 92.95 46.35
L 92.95 46.4
Q 93.9 52.2 93.95 57.4 94.05 58.65 92.95 59.05
L 92.75 57.2
Q 91.85 53.15 83.95 50.2
L 76.8 48.15 76.6 48.15
Q 70.5 47.5 63.05 48.25
L 61.9 48.4 61.75 48.4 60.75 48.55 60.6 48.55 52.4 50.35
Q 46.35 52.1 40.65 55.8
L 40.05 56.15 40 56.25 38.35 57.45 38.35 57.5 38.2 57.55 36.35 59.3
Q 33.15 62.5 33.3 65.4
L 33.6 67.25
Q 32.65 67.1 32.2 65.95 30.75 60.35 30.2 55.1
L 30.2 55
Q 29.95 53.4 30.25 51.95 30.4 51.25 30.7 50.35 31.85 47.2 35.1 44.25
L 38 41.95 38.1 41.85
Q 45.9 36.4 57.45 34.35 58.35 34.15 59.25 34.05
L 61.05 33.85
Q 68.45 33.1 74.65 34.05
L 81.85 35.85 81.95 35.9 82.35 36.05 Z"/>

<path id="Layer0_2_MEMBER_2_1_STROKES" stroke="#FFE641" stroke-width="4" stroke-linejoin="round" stroke-linecap="round" fill="none" d="
M 353.85 67.95
L 362.25 59.55 353.85 51.2
M 364.85 67.95
L 373.25 59.55 364.85 51.2"/>
</defs>

<g transform="matrix( 0.959228515625, 0, 0, 1, -22.35,-254.1) ">
<use xlink:href="#Layer0_0_FILL"/>
</g>

<g transform="matrix( 1, 0, 0, 1, 65.15,-20.75) ">
<use xlink:href="#Layer0_1_FILL"/>
</g>

<g transform="matrix( 1, 0, 0, 1, -107.9,4.2) ">
<use xlink:href="#Layer0_1_MEMBER_0_MEMBER_0_MEMBER_0_MEMBER_0_MEMBER_0_FILL"/>
</g>

<g transform="matrix( 1, 0, 0, 1, -107.9,4.2) ">
<use xlink:href="#Layer0_1_MEMBER_0_MEMBER_0_MEMBER_0_MEMBER_0_MEMBER_1_FILL"/>
</g>

<g transform="matrix( 1, 0, 0, 1, -107.9,4.2) ">
<use xlink:href="#Layer0_1_MEMBER_0_MEMBER_0_MEMBER_0_MEMBER_0_MEMBER_2_FILL"/>
</g>

<g transform="matrix( 1, 0, 0, 1, -107.9,4.2) ">
<use xlink:href="#Layer0_1_MEMBER_0_MEMBER_0_MEMBER_0_MEMBER_0_MEMBER_3_FILL"/>
</g>

<g transform="matrix( 1, 0, 0, 1, -107.9,4.2) ">
<use xlink:href="#Layer0_1_MEMBER_0_MEMBER_0_MEMBER_0_MEMBER_0_MEMBER_4_FILL"/>
</g>

<g transform="matrix( 1, 0, 0, 1, -107.9,4.2) ">
<use xlink:href="#Layer0_1_MEMBER_0_MEMBER_0_MEMBER_1_MEMBER_0_1_STROKES"/>
</g>

<g transform="matrix( 1, 0, 0, 1, -107.9,4.2) ">
<use xlink:href="#Layer0_1_MEMBER_0_MEMBER_1_MEMBER_0_MEMBER_0_MEMBER_0_FILL"/>
</g>

<g transform="matrix( 1, 0, 0, 1, -107.9,4.2) ">
<use xlink:href="#Layer0_1_MEMBER_0_MEMBER_1_MEMBER_0_MEMBER_0_MEMBER_1_FILL"/>
</g>

<g transform="matrix( 1, 0, 0, 1, -107.9,4.2) ">
<use xlink:href="#Layer0_1_MEMBER_0_MEMBER_1_MEMBER_0_MEMBER_0_MEMBER_2_FILL"/>
</g>

<g transform="matrix( 1, 0, 0, 1, -107.9,4.2) ">
<use xlink:href="#Layer0_1_MEMBER_0_MEMBER_1_MEMBER_0_MEMBER_0_MEMBER_3_FILL"/>
</g>

<g transform="matrix( 1, 0, 0, 1, -107.9,4.2) ">
<use xlink:href="#Layer0_1_MEMBER_0_MEMBER_1_MEMBER_0_MEMBER_0_MEMBER_4_FILL"/>
</g>

<g transform="matrix( 1, 0, 0, 1, -107.9,4.2) ">
<use xlink:href="#Layer0_1_MEMBER_0_MEMBER_1_MEMBER_1_MEMBER_0_1_STROKES"/>
</g>

<g transform="matrix( 1, 0, 0, 1, -107.9,4.2) ">
<use xlink:href="#Layer0_1_MEMBER_0_MEMBER_2_MEMBER_0_MEMBER_0_MEMBER_0_FILL"/>
</g>

<g transform="matrix( 1, 0, 0, 1, -107.9,4.2) ">
<use xlink:href="#Layer0_1_MEMBER_0_MEMBER_2_MEMBER_0_MEMBER_0_MEMBER_1_FILL"/>
</g>

<g transform="matrix( 1, 0, 0, 1, -107.9,4.2) ">
<use xlink:href="#Layer0_1_MEMBER_0_MEMBER_2_MEMBER_1_MEMBER_0_1_STROKES"/>
</g>

<g transform="matrix( 1, 0, 0, 1, -107.9,4.2) ">
<use xlink:href="#Layer0_1_MEMBER_0_MEMBER_3_MEMBER_0_MEMBER_0_MEMBER_0_FILL"/>
</g>

<g transform="matrix( 1, 0, 0, 1, -107.9,4.2) ">
<use xlink:href="#Layer0_1_MEMBER_0_MEMBER_3_MEMBER_0_MEMBER_0_MEMBER_1_FILL"/>
</g>

<g transform="matrix( 1, 0, 0, 1, -107.9,4.2) ">
<use xlink:href="#Layer0_1_MEMBER_0_MEMBER_3_MEMBER_1_MEMBER_0_1_STROKES"/>
</g>

<g transform="matrix( 1, 0, 0, 1, -107.9,4.2) ">
<use xlink:href="#Layer0_1_MEMBER_0_MEMBER_4_MEMBER_0_MEMBER_0_MEMBER_0_FILL"/>
</g>

<g transform="matrix( 1, 0, 0, 1, -107.9,4.2) ">
<use xlink:href="#Layer0_1_MEMBER_0_MEMBER_4_MEMBER_0_MEMBER_0_MEMBER_1_FILL"/>
</g>

<g transform="matrix( 1, 0, 0, 1, -107.9,4.2) ">
<use xlink:href="#Layer0_1_MEMBER_0_MEMBER_4_MEMBER_1_MEMBER_0_1_STROKES"/>
</g>

<g transform="matrix( 1, 0, 0, 1, -107.9,4.2) ">
<use xlink:href="#Layer0_1_MEMBER_0_MEMBER_5_MEMBER_0_MEMBER_0_MEMBER_0_FILL"/>
</g>

<g transform="matrix( 1, 0, 0, 1, -107.9,4.2) ">
<use xlink:href="#Layer0_1_MEMBER_0_MEMBER_6_MEMBER_0_MEMBER_0_MEMBER_0_FILL"/>
</g>

<g transform="matrix( 1, 0, 0, 1, -107.9,4.2) ">
<use xlink:href="#Layer0_1_MEMBER_0_MEMBER_7_MEMBER_0_MEMBER_0_MEMBER_0_FILL"/>
</g>

<g transform="matrix( 1, 0, 0, 1, -107.9,4.2) ">
<use xlink:href="#Layer0_1_MEMBER_0_MEMBER_8_MEMBER_0_MEMBER_0_MEMBER_0_FILL"/>
</g>

<g transform="matrix( 1, 0, 0, 1, -107.9,4.2) ">
<use xlink:href="#Layer0_1_MEMBER_0_MEMBER_9_MEMBER_0_MEMBER_0_MEMBER_0_FILL"/>
</g>

<g transform="matrix( 1, 0, 0, 1, -107.9,4.2) ">
<use xlink:href="#Layer0_1_MEMBER_0_MEMBER_10_MEMBER_0_MEMBER_0_MEMBER_0_FILL"/>
</g>

<g transform="matrix( 1, 0, 0, 1, -107.9,4.2) ">
<use xlink:href="#Layer0_1_MEMBER_0_MEMBER_11_MEMBER_0_MEMBER_0_MEMBER_0_FILL"/>
</g>

<g transform="matrix( 1, 0, 0, 1, -107.9,4.2) ">
<use xlink:href="#Layer0_1_MEMBER_0_MEMBER_11_MEMBER_0_MEMBER_0_MEMBER_1_FILL"/>
</g>

<g transform="matrix( 1, 0, 0, 1, -107.9,4.2) ">
<use xlink:href="#Layer0_1_MEMBER_0_MEMBER_11_MEMBER_0_MEMBER_0_MEMBER_2_FILL"/>
</g>

<g transform="matrix( 1, 0, 0, 1, -107.9,4.2) ">
<use xlink:href="#Layer0_1_MEMBER_0_MEMBER_12_MEMBER_0_MEMBER_0_MEMBER_0_FILL"/>
</g>

<g transform="matrix( 1, 0, 0, 1, -107.9,4.2) ">
<use xlink:href="#Layer0_1_MEMBER_0_MEMBER_13_MEMBER_0_MEMBER_0_MEMBER_0_FILL"/>
</g>

<g transform="matrix( 1, 0, 0, 1, -107.9,4.2) ">
<use xlink:href="#Layer0_1_MEMBER_0_MEMBER_14_MEMBER_0_MEMBER_0_MEMBER_0_FILL"/>
</g>

<g transform="matrix( 1, 0, 0, 1, -107.9,4.2) ">
<use xlink:href="#Layer0_1_MEMBER_0_MEMBER_15_MEMBER_0_MEMBER_0_MEMBER_0_FILL"/>
</g>

<g transform="matrix( 1, 0, 0, 1, -107.9,4.2) ">
<use xlink:href="#Layer0_1_MEMBER_0_MEMBER_16_MEMBER_0_MEMBER_0_MEMBER_0_FILL"/>
</g>

<g transform="matrix( 1, 0, 0, 1, -107.9,4.2) ">
<use xlink:href="#Layer0_1_MEMBER_0_MEMBER_17_MEMBER_0_MEMBER_0_MEMBER_0_FILL"/>
</g>

<g transform="matrix( 1, 0, 0, 1, -107.9,4.2) ">
<use xlink:href="#Layer0_1_MEMBER_0_MEMBER_17_MEMBER_0_MEMBER_0_MEMBER_1_FILL"/>
</g>

<g transform="matrix( 1, 0, 0, 1, -107.9,4.2) ">
<use xlink:href="#Layer0_1_MEMBER_0_MEMBER_17_MEMBER_0_MEMBER_0_MEMBER_2_FILL"/>
</g>

<g transform="matrix( 1, 0, 0, 1, -107.9,4.2) ">
<use xlink:href="#Layer0_1_MEMBER_0_MEMBER_18_MEMBER_0_MEMBER_0_MEMBER_0_FILL"/>
</g>

<g transform="matrix( 1, 0, 0, 1, -107.9,4.2) ">
<use xlink:href="#Layer0_1_MEMBER_0_MEMBER_19_MEMBER_0_MEMBER_0_MEMBER_0_FILL"/>
</g>

<g transform="matrix( 1, 0, 0, 1, -107.9,4.2) ">
<use xlink:href="#Layer0_1_MEMBER_0_MEMBER_20_MEMBER_0_MEMBER_0_MEMBER_0_FILL"/>
</g>

<g transform="matrix( 1, 0, 0, 1, -107.9,4.2) ">
<use xlink:href="#Layer0_1_MEMBER_0_MEMBER_21_MEMBER_0_MEMBER_0_MEMBER_0_FILL"/>
</g>

<g transform="matrix( 1, 0, 0, 1, -107.9,4.2) ">
<use xlink:href="#Layer0_1_MEMBER_0_MEMBER_21_MEMBER_0_MEMBER_0_MEMBER_1_FILL"/>
</g>

<g transform="matrix( 1, 0, 0, 1, -107.9,4.2) ">
<use xlink:href="#Layer0_1_MEMBER_0_MEMBER_21_MEMBER_1_MEMBER_0_1_STROKES"/>
</g>

<g transform="matrix( 1, 0, 0, 1, -107.9,4.2) ">
<use xlink:href="#Layer0_1_MEMBER_0_MEMBER_22_MEMBER_0_MEMBER_0_MEMBER_0_FILL"/>
</g>

<g transform="matrix( 1, 0, 0, 1, -107.9,4.2) ">
<use xlink:href="#Layer0_1_MEMBER_0_MEMBER_22_MEMBER_0_MEMBER_0_MEMBER_1_FILL"/>
</g>

<g transform="matrix( 1, 0, 0, 1, -107.9,4.2) ">
<use xlink:href="#Layer0_1_MEMBER_0_MEMBER_22_MEMBER_1_MEMBER_0_1_STROKES"/>
</g>

<g transform="matrix( 1, 0, 0, 1, -107.9,4.2) ">
<use xlink:href="#Layer0_1_MEMBER_0_MEMBER_23_MEMBER_0_MEMBER_0_MEMBER_0_FILL"/>
</g>

<g transform="matrix( 1, 0, 0, 1, -107.9,4.2) ">
<use xlink:href="#Layer0_1_MEMBER_0_MEMBER_23_MEMBER_0_MEMBER_0_MEMBER_1_FILL"/>
</g>

<g transform="matrix( 1, 0, 0, 1, -107.9,4.2) ">
<use xlink:href="#Layer0_1_MEMBER_0_MEMBER_23_MEMBER_0_MEMBER_0_MEMBER_2_FILL"/>
</g>

<g transform="matrix( 1, 0, 0, 1, -107.9,4.2) ">
<use xlink:href="#Layer0_1_MEMBER_0_MEMBER_23_MEMBER_0_MEMBER_0_MEMBER_3_FILL"/>
</g>

<g transform="matrix( 1, 0, 0, 1, -107.9,4.2) ">
<use xlink:href="#Layer0_1_MEMBER_0_MEMBER_23_MEMBER_0_MEMBER_0_MEMBER_4_FILL"/>
</g>

<g transform="matrix( 1, 0, 0, 1, -107.9,4.2) ">
<use xlink:href="#Layer0_1_MEMBER_0_MEMBER_23_MEMBER_1_MEMBER_0_1_STROKES"/>
</g>

<g transform="matrix( 1, 0, 0, 1, -107.9,4.2) ">
<use xlink:href="#Layer0_1_MEMBER_0_MEMBER_24_MEMBER_0_MEMBER_0_MEMBER_0_FILL"/>
</g>

<g transform="matrix( 1, 0, 0, 1, -107.9,4.2) ">
<use xlink:href="#Layer0_1_MEMBER_0_MEMBER_24_MEMBER_0_MEMBER_0_MEMBER_1_FILL"/>
</g>

<g transform="matrix( 1, 0, 0, 1, -107.9,4.2) ">
<use xlink:href="#Layer0_1_MEMBER_0_MEMBER_24_MEMBER_0_MEMBER_0_MEMBER_2_FILL"/>
</g>

<g transform="matrix( 1, 0, 0, 1, -107.9,4.2) ">
<use xlink:href="#Layer0_1_MEMBER_0_MEMBER_25_MEMBER_0_MEMBER_0_MEMBER_0_FILL"/>
</g>

<g transform="matrix( 1, 0, 0, 1, -107.9,4.2) ">
<use xlink:href="#Layer0_1_MEMBER_0_MEMBER_26_MEMBER_0_MEMBER_0_MEMBER_0_FILL"/>
</g>

<g transform="matrix( 1, 0, 0, 1, -107.9,4.2) ">
<use xlink:href="#Layer0_1_MEMBER_0_MEMBER_27_MEMBER_0_MEMBER_0_MEMBER_0_FILL"/>
</g>

<g transform="matrix( 1, 0, 0, 1, -107.9,4.2) ">
<use xlink:href="#Layer0_1_MEMBER_0_MEMBER_27_MEMBER_0_MEMBER_0_MEMBER_1_FILL"/>
</g>

<g transform="matrix( 1, 0, 0, 1, -107.9,4.2) ">
<use xlink:href="#Layer0_1_MEMBER_0_MEMBER_27_MEMBER_0_MEMBER_0_MEMBER_2_FILL"/>
</g>

<g transform="matrix( 1, 0, 0, 1, -107.9,4.2) ">
<use xlink:href="#Layer0_1_MEMBER_0_MEMBER_27_MEMBER_1_MEMBER_0_1_STROKES"/>
</g>

<g transform="matrix( 1, 0, 0, 1, -334.4,2) ">
<use xlink:href="#Layer0_2_FILL"/>
</g>

<g transform="matrix( 1, 0, 0, 1, -334.4,2) ">
<use xlink:href="#Layer0_2_MEMBER_0_FILL"/>
</g>

<g transform="matrix( 0.8052520751953125, 0.3178253173828125, -0.3177337646484375, 0.8051910400390625, -240.9,-368.15) ">
<use xlink:href="#Layer0_2_MEMBER_0_MEMBER_0_FILL"/>
</g>

<g transform="matrix( 1.069976806640625, 0, 0, 1.069976806640625, -439.05,-257.2) ">
<use xlink:href="#Layer0_2_MEMBER_1_MEMBER_0_FILL"/>
</g>

<g transform="matrix( 1, 0, 0, 1, -194.55,3.75) ">
<use xlink:href="#Layer0_2_MEMBER_1_MEMBER_1_FILL"/>
</g>

<g transform="matrix( 1.069976806640625, 0, 0, 1.069976806640625, -435.75,-262.55) ">
<use xlink:href="#Layer0_2_MEMBER_1_MEMBER_2_FILL"/>
</g>

<g transform="matrix( 1.350830078125, 0, 0, 1.069976806640625, -566.3,-262.55) ">
<use xlink:href="#Layer0_2_MEMBER_1_MEMBER_3_FILL"/>
</g>

<g transform="matrix( 0.6812896728515625, 0, 0, 0.6812896728515625, -272,-155.25) ">
<use xlink:href="#Layer0_2_MEMBER_1_MEMBER_4_FILL"/>
</g>

<g transform="matrix( 1, 0, 0, 1, -334.4,2) ">
<use xlink:href="#Layer0_2_MEMBER_2_1_STROKES"/>
</g>
</svg>
